(0 "CUBIT to Fluent File")

(0 "Dimensions:")
(2 2)

(10 (0 1 469 1 2))
(12 (0 1 411 0))
(13 (0 1 878 0))

(0 "Nodes:")
(10 (1 1 469 1 2)
(
0.0000000000e+00   -5.0000000000e+00
2.8035223619e-01   -4.9921340751e+00
2.7754871382e-01   -4.9422127343e+00
0.0000000000e+00   -4.9500000000e+00
5.5982238052e-01   -4.9685610495e+00
5.5422415671e-01   -4.9188754390e+00
8.3753111652e-01   -4.9293550926e+00
8.2915580536e-01   -4.8800615417e+00
1.1126046698e+00   -4.8746395609e+00
1.1014786231e+00   -4.8258931653e+00
1.3841775571e+00   -4.8045866097e+00
1.3703357816e+00   -4.7565407436e+00
1.6513953098e+00   -4.7194166515e+00
1.6348813567e+00   -4.6722224850e+00
1.9134171618e+00   -4.6193976626e+00
1.8942829902e+00   -4.5732036859e+00
2.1694186956e+00   -4.5048443395e+00
2.1477245086e+00   -4.4597958961e+00
2.4185944355e+00   -4.3761171095e+00
2.3944084912e+00   -4.3323559384e+00
2.6601603826e+00   -4.2336209961e+00
2.6335587788e+00   -4.1912847862e+00
2.8933564809e+00   -4.0778043448e+00
2.8644229161e+00   -4.0370263013e+00
3.1174490093e+00   -3.9091574123e+00
3.0862745192e+00   -3.8700658382e+00
3.3317328898e+00   -3.7282108244e+00
3.2984155609e+00   -3.6909287162e+00
3.5355339059e+00   -3.5355339059e+00
3.5001785669e+00   -3.5001785669e+00
3.7282108244e+00   -3.3317328898e+00
3.6909287162e+00   -3.2984155609e+00
3.9091574123e+00   -3.1174490093e+00
3.8700658382e+00   -3.0862745192e+00
4.0778043448e+00   -2.8933564809e+00
4.0370263013e+00   -2.8644229161e+00
4.2336209961e+00   -2.6601603826e+00
4.1912847862e+00   -2.6335587788e+00
4.3761171095e+00   -2.4185944355e+00
4.3323559384e+00   -2.3944084912e+00
4.5048443395e+00   -2.1694186956e+00
4.4597958961e+00   -2.1477245086e+00
4.6193976626e+00   -1.9134171618e+00
4.5732036859e+00   -1.8942829902e+00
4.7194166515e+00   -1.6513953098e+00
4.6722224850e+00   -1.6348813567e+00
4.8045866097e+00   -1.3841775571e+00
4.7565407436e+00   -1.3703357816e+00
4.8746395609e+00   -1.1126046698e+00
4.8258931653e+00   -1.1014786231e+00
4.9293550926e+00   -8.3753111652e-01
4.8800615417e+00   -8.2915580536e-01
4.9685610495e+00   -5.5982238052e-01
4.9188754390e+00   -5.5422415671e-01
4.9921340751e+00   -2.8035223619e-01
4.9422127343e+00   -2.7754871382e-01
5.0000000000e+00   0.0000000000e+00
4.9500000000e+00   0.0000000000e+00
2.7404431087e-01   -4.8798110584e+00
0.0000000000e+00   -4.8875000000e+00
5.4722637695e-01   -4.8567684259e+00
8.1868666640e-01   -4.8184446030e+00
1.0875710647e+00   -4.7649601708e+00
1.3530335621e+00   -4.6964834110e+00
1.6142389153e+00   -4.6132297769e+00
1.8703652757e+00   -4.5154612151e+00
2.1206067749e+00   -4.4034853419e+00
2.3641760607e+00   -4.2776544746e+00
2.6003067740e+00   -4.1383645237e+00
2.8282559601e+00   -3.9860537470e+00
3.0473064066e+00   -3.8212013706e+00
3.2567688997e+00   -3.6443260809e+00
3.4559843930e+00   -3.4559843930e+00
3.6443260809e+00   -3.2567688997e+00
3.8212013706e+00   -3.0473064066e+00
3.9860537470e+00   -2.8282559601e+00
4.1383645237e+00   -2.6003067740e+00
4.2776544746e+00   -2.3641760607e+00
4.4034853419e+00   -2.1206067749e+00
4.5154612151e+00   -1.8703652757e+00
4.6132297769e+00   -1.6142389153e+00
4.6964834110e+00   -1.3530335621e+00
4.7649601708e+00   -1.0875710647e+00
4.8184446030e+00   -8.1868666640e-01
4.8567684259e+00   -5.4722637695e-01
4.8798110584e+00   -2.7404431087e-01
4.8875000000e+00   0.0000000000e+00
2.6966380718e-01   -4.8018089635e+00
0.0000000000e+00   -4.8093750000e+00
5.3847915226e-01   -4.7791346595e+00
8.0560024271e-01   -4.7414234297e+00
1.0701866167e+00   -4.6887939276e+00
1.3314057878e+00   -4.6214117452e+00
1.5884358636e+00   -4.5394888917e+00
1.8404681325e+00   -4.4432831267e+00
2.0867096078e+00   -4.3330971491e+00
2.3263855227e+00   -4.2092776447e+00
2.5587417680e+00   -4.0722141957e+00
2.7830472651e+00   -3.9223380542e+00
2.9985962658e+00   -3.7601207860e+00
3.2047105733e+00   -3.5860727867e+00
3.4007416758e+00   -3.4007416758e+00
3.5860727867e+00   -3.2047105733e+00
3.7601207860e+00   -2.9985962658e+00
3.9223380542e+00   -2.7830472651e+00
4.0722141957e+00   -2.5587417680e+00
4.2092776447e+00   -2.3263855227e+00
4.3330971491e+00   -2.0867096078e+00
4.4432831267e+00   -1.8404681325e+00
4.5394888917e+00   -1.5884358636e+00
4.6214117452e+00   -1.3314057878e+00
4.6887939276e+00   -1.0701866167e+00
4.7414234297e+00   -8.0560024271e-01
4.7791346595e+00   -5.3847915226e-01
4.8018089635e+00   -2.6966380718e-01
4.8093750000e+00   0.0000000000e+00
2.6418817757e-01   -4.7043063448e+00
0.0000000000e+00   -4.7117187500e+00
5.2754512139e-01   -4.6820924515e+00
7.8924221309e-01   -4.6451469630e+00
1.0484560568e+00   -4.5935861237e+00
1.3043710698e+00   -4.5275721630e+00
1.5561820489e+00   -4.4473127852e+00
1.8030967036e+00   -4.3530605161e+00
2.0443381489e+00   -4.2451119081e+00
2.2791473501e+00   -4.1238066074e+00
2.5067855105e+00   -3.9895262856e+00
2.7265363963e+00   -3.8426934380e+00
2.9377085899e+00   -3.6837700553e+00
3.1396376653e+00   -3.5132561691e+00
3.3316882792e+00   -3.3316882792e+00
3.5132561691e+00   -3.1396376653e+00
3.6837700553e+00   -2.9377085899e+00
3.8426934380e+00   -2.7265363963e+00
3.9895262856e+00   -2.5067855105e+00
4.1238066074e+00   -2.2791473501e+00
4.2451119081e+00   -2.0443381489e+00
4.3530605161e+00   -1.8030967036e+00
4.4473127852e+00   -1.5561820489e+00
4.5275721630e+00   -1.3043710698e+00
4.5935861237e+00   -1.0484560568e+00
4.6451469630e+00   -7.8924221309e-01
4.6820924515e+00   -5.2754512139e-01
4.7043063448e+00   -2.6418817757e-01
4.7117187500e+00   0.0000000000e+00
2.5734364055e-01   -4.5824280715e+00
0.0000000000e+00   -4.5896484375e+00
5.1387758280e-01   -4.5607896915e+00
7.6879467606e-01   -4.5248013797e+00
1.0212928568e+00   -4.4745763688e+00
1.2705776725e+00   -4.4102726852e+00
1.5158647806e+00   -4.3320926521e+00
1.7563824174e+00   -4.2402822528e+00
1.9913738253e+00   -4.1351303568e+00
2.2200996344e+00   -4.0169678108e+00
2.4418401887e+00   -3.8861663980e+00
2.6558978103e+00   -3.7431376679e+00
2.8615989949e+00   -3.5883316419e+00
3.0582965303e+00   -3.4222353970e+00
3.2453715334e+00   -3.2453715334e+00
3.4222353970e+00   -3.0582965303e+00
3.5883316419e+00   -2.8615989949e+00
3.7431376679e+00   -2.6558978103e+00
3.8861663980e+00   -2.4418401887e+00
4.0169678108e+00   -2.2200996344e+00
4.1351303568e+00   -1.9913738253e+00
4.2402822528e+00   -1.7563824174e+00
4.3320926521e+00   -1.5158647806e+00
4.4102726852e+00   -1.2705776725e+00
4.4745763688e+00   -1.0212928568e+00
4.5248013797e+00   -7.6879467606e-01
4.5607896915e+00   -5.1387758280e-01
4.5824280715e+00   -2.5734364055e-01
4.5896484375e+00   0.0000000000e+00
2.4878796928e-01   -4.4300802299e+00
0.0000000000e+00   -4.4370605469e+00
4.9679315957e-01   -4.4091612415e+00
7.4323525478e-01   -4.3743694006e+00
9.8733885691e-01   -4.3258141752e+00
1.2283359257e+00   -4.2636483380e+00
1.4654681953e+00   -4.1880674858e+00
1.6979895597e+00   -4.0993094238e+00
1.9251684208e+00   -3.9976534177e+00
2.1462899898e+00   -3.8834193151e+00
2.3606585364e+00   -3.7569665385e+00
2.5675995779e+00   -3.6186929552e+00
2.7664620012e+00   -3.4690336252e+00
2.9566201116e+00   -3.3084594319e+00
3.1374756012e+00   -3.1374756012e+00
3.3084594319e+00   -2.9566201116e+00
3.4690336252e+00   -2.7664620012e+00
3.6186929552e+00   -2.5675995779e+00
3.7569665385e+00   -2.3606585364e+00
3.8834193151e+00   -2.1462899898e+00
3.9976534177e+00   -1.9251684208e+00
4.0993094238e+00   -1.6979895597e+00
4.1880674858e+00   -1.4654681953e+00
4.2636483380e+00   -1.2283359257e+00
4.3258141752e+00   -9.8733885691e-01
4.3743694006e+00   -7.4323525478e-01
4.4091612415e+00   -4.9679315957e-01
4.4300802299e+00   -2.4878796928e-01
4.4370605469e+00   0.0000000000e+00
2.3809338019e-01   -4.2396454278e+00
0.0000000000e+00   -4.2463256836e+00
4.7543763053e-01   -4.2196256790e+00
7.1128597818e-01   -4.1863294266e+00
9.4489635700e-01   -4.1398614332e+00
1.1755337423e+00   -4.0803679040e+00
1.4024724635e+00   -4.0080360278e+00
1.6249984875e+00   -3.9230933874e+00
1.8424116651e+00   -3.8258072439e+00
2.0540279340e+00   -3.7164836953e+00
2.2591814710e+00   -3.5954667141e+00
2.4572267873e+00   -3.4631370644e+00
2.6475407591e+00   -3.3199111042e+00
2.8295245881e+00   -3.1662394755e+00
3.0026056860e+00   -3.0026056860e+00
3.1662394755e+00   -2.8295245881e+00
3.3199111042e+00   -2.6475407591e+00
3.4631370644e+00   -2.4572267873e+00
3.5954667141e+00   -2.2591814710e+00
3.7164836953e+00   -2.0540279340e+00
3.8258072439e+00   -1.8424116651e+00
3.9230933874e+00   -1.6249984875e+00
4.0080360278e+00   -1.4024724635e+00
4.0803679040e+00   -1.1755337423e+00
4.1398614332e+00   -9.4489635700e-01
4.1863294266e+00   -7.1128597818e-01
4.2196256790e+00   -4.7543763053e-01
4.2396454278e+00   -2.3809338019e-01
4.2463256836e+00   0.0000000000e+00
3.9632373047e+00   0.0000000000e+00
3.6801489258e+00   0.0000000000e+00
3.6573252160e+00   -2.3189151513e-01
3.9476571445e+00   -2.3470816487e-01
3.3970605469e+00   0.0000000000e+00
3.3686599566e+00   -2.3023354928e-01
3.1139721680e+00   0.0000000000e+00
3.0816741202e+00   -2.3022650959e-01
2.8308837891e+00   0.0000000000e+00
2.7963672965e+00   -2.3114507906e-01
2.5477954102e+00   0.0000000000e+00
2.5118603686e+00   -2.3300313103e-01
2.2647070313e+00   0.0000000000e+00
2.2283729137e+00   -2.3551115412e-01
1.9816186523e+00   0.0000000000e+00
1.9469885423e+00   -2.3983292963e-01
1.6985302734e+00   0.0000000000e+00
1.6662910653e+00   -2.4409754967e-01
1.4154418945e+00   0.0000000000e+00
1.3871871332e+00   -2.5013960131e-01
1.1323535156e+00   0.0000000000e+00
1.1085098695e+00   -2.5601583978e-01
8.4926513672e-01   0.0000000000e+00
8.3085052376e-01   -2.6243316278e-01
5.6617675781e-01   0.0000000000e+00
5.5386067239e-01   -2.6906908195e-01
2.8308837891e-01   0.0000000000e+00
2.7689647520e-01   -2.7632899545e-01
0.0000000000e+00   0.0000000000e+00
0.0000000000e+00   -2.8308837891e-01
3.6277970306e+00   -4.6325505969e-01
3.9229132251e+00   -4.6818107964e-01
3.3360330714e+00   -4.6046191340e-01
3.0466698011e+00   -4.6068550165e-01
2.7596734172e+00   -4.6363663008e-01
2.4749689621e+00   -4.6735261529e-01
2.1925110605e+00   -4.7379229182e-01
1.9127097190e+00   -4.8195170467e-01
1.6353337059e+00   -4.9201215829e-01
1.3593059380e+00   -5.0266433755e-01
1.0855076714e+00   -5.1434349327e-01
8.1327106073e-01   -5.2622078444e-01
5.4194556825e-01   -5.3985349028e-01
2.7092425177e-01   -5.5294740547e-01
0.0000000000e+00   -5.6617675781e-01
3.5904443289e+00   -6.9393158941e-01
3.8874665340e+00   -7.0090557422e-01
3.2970753171e+00   -6.9145219654e-01
3.0070893882e+00   -6.9286019713e-01
2.7202054960e+00   -6.9669303962e-01
2.4362746359e+00   -7.0398957620e-01
2.1558561121e+00   -7.1429188709e-01
1.8790250783e+00   -7.2724551528e-01
1.6040517774e+00   -7.4142984217e-01
1.3326606473e+00   -7.5790481905e-01
1.0631474708e+00   -7.7417822474e-01
7.9618760295e-01   -7.9266946712e-01
5.3046400612e-01   -8.1159174796e-01
2.6515882459e-01   -8.3051514515e-01
0.0000000000e+00   -8.4926513672e-01
3.5442626286e+00   -9.2488396342e-01
3.8407982478e+00   -9.3232545500e-01
3.2515840573e+00   -9.2225669773e-01
2.9624801429e+00   -9.2464681255e-01
2.6771346500e+00   -9.3112124243e-01
2.3957194098e+00   -9.4240247057e-01
2.1183988615e+00   -9.5684324696e-01
1.8439845373e+00   -9.7433676545e-01
1.5736823663e+00   -9.9401554796e-01
1.3055549297e+00   -1.0147533487e+00
1.0417105417e+00   -1.0372707980e+00
7.7955267757e-01   -1.0609673470e+00
5.1928806077e-01   -1.0849070399e+00
2.5953157869e-01   -1.1086537265e+00
0.0000000000e+00   -1.1323535156e+00
3.4889002149e+00   -1.1533454666e+00
3.7835607256e+00   -1.1616882064e+00
3.1987105725e+00   -1.1521260992e+00
2.9124474696e+00   -1.1564447152e+00
2.6306025431e+00   -1.1670529163e+00
2.3526745949e+00   -1.1819513611e+00
2.0789931628e+00   -1.2020557801e+00
1.8087906684e+00   -1.2239263752e+00
1.5420826677e+00   -1.2489162800e+00
1.2798127511e+00   -1.2756735661e+00
1.0208685023e+00   -1.3036857455e+00
7.6352405790e-01   -1.3314127951e+00
5.0861799600e-01   -1.3597383853e+00
2.5421502809e-01   -1.3875637970e+00
0.0000000000e+00   -1.4154418945e+00
3.4244475985e+00   -1.3804396070e+00
3.7145944839e+00   -1.3876189973e+00
3.1388041349e+00   -1.3805654825e+00
2.8574916512e+00   -1.3885640825e+00
2.5800993379e+00   -1.4031860661e+00
2.3073708413e+00   -1.4240815850e+00
2.0377473103e+00   -1.4485734850e+00
1.7724442713e+00   -1.4768322563e+00
1.5119083002e+00   -1.5084282121e+00
1.2557953525e+00   -1.5409843347e+00
1.0006023966e+00   -1.5720058289e+00
7.4830577150e-01   -1.6038032627e+00
4.9862684942e-01   -1.6357840761e+00
2.4906531617e-01   -1.6673163527e+00
0.0000000000e+00   -1.6985302734e+00
3.3516538932e+00   -1.6044971980e+00
3.6358654630e+00   -1.6105248135e+00
3.0724830187e+00   -1.6081281804e+00
2.7975789857e+00   -1.6210111718e+00
2.5264313029e+00   -1.6409405284e+00
2.2592291183e+00   -1.6673730834e+00
1.9959531974e+00   -1.6987235337e+00
1.7380316898e+00   -1.7347638017e+00
1.4842050790e+00   -1.7723173534e+00
1.2311026087e+00   -1.8072985600e+00
9.8083703332e-01   -1.8431994808e+00
7.3395353949e-01   -1.8786831977e+00
4.8887179811e-01   -1.9138284571e+00
2.4427722169e-01   -1.9481464137e+00
0.0000000000e+00   -1.9816186523e+00
3.2715111515e+00   -1.8259610132e+00
3.5464674738e+00   -1.8288070029e+00
3.0014027500e+00   -1.8349193009e+00
2.7339787258e+00   -1.8526764269e+00
2.4707789076e+00   -1.8799580475e+00
2.2109938270e+00   -1.9144607571e+00
1.9567355492e+00   -1.9546191824e+00
1.7053201126e+00   -1.9961959137e+00
1.4550616449e+00   -2.0370946339e+00
1.2078128387e+00   -2.0782811012e+00
9.6247591746e-01   -2.1175724639e+00
7.2071565582e-01   -2.1566129781e+00
4.8043431815e-01   -2.1943137189e+00
2.4028313082e-01   -2.2301430156e+00
0.0000000000e+00   -2.2647070312e+00
3.1855483839e+00   -2.0438070633e+00
3.4488768911e+00   -2.0425598734e+00
2.9255505341e+00   -2.0576559521e+00
2.6690536435e+00   -2.0846130845e+00
2.4154255081e+00   -2.1217322707e+00
2.1664038159e+00   -2.1658834535e+00
1.9181629312e+00   -2.2118240098e+00
1.6730580478e+00   -2.2595338890e+00
1.4293046577e+00   -2.3065090558e+00
1.1865233276e+00   -2.3518833101e+00
9.4771942984e-01   -2.3958671575e+00
7.1026175353e-01   -2.4375343784e+00
4.7392439647e-01   -2.4768382265e+00
2.3707727408e-01   -2.5131608855e+00
0.0000000000e+00   -2.5477954102e+00
3.0934832927e+00   -2.2558226085e+00
3.3363470292e+00   -2.2507377475e+00
2.8483120037e+00   -2.2795011012e+00
2.6048963307e+00   -2.3172723658e+00
2.3631304727e+00   -2.3648561157e+00
2.1224136163e+00   -2.4173078511e+00
1.8838644097e+00   -2.4719292187e+00
1.6451780659e+00   -2.5261917921e+00
1.4073368284e+00   -2.5797628049e+00
1.1716382988e+00   -2.6305283271e+00
9.3638550244e-01   -2.6778643375e+00
7.0230215598e-01   -2.7216371028e+00
4.6894385538e-01   -2.7614807776e+00
2.3479082933e-01   -2.7971625226e+00
0.0000000000e+00   -2.8308837891e+00
2.9942709104e+00   -2.4636554300e+00
3.2182045204e+00   -2.4526623439e+00
2.7725470679e+00   -2.4974298585e+00
2.5445679002e+00   -2.5481515122e+00
2.3162394678e+00   -2.6080374145e+00
2.0862793499e+00   -2.6711855654e+00
1.8555478760e+00   -2.7354781326e+00
1.6246257656e+00   -2.7986501888e+00
1.3929926353e+00   -2.8586481968e+00
1.1607779582e+00   -2.9135942435e+00
9.2877285131e-01   -2.9638408030e+00
6.9798625699e-01   -3.0089942513e+00
4.6671279678e-01   -3.0482641665e+00
2.3374980340e-01   -3.0827227889e+00
0.0000000000e+00   -3.1139721680e+00
2.9018544035e+00   -2.6612093557e+00
3.1015140480e+00   -2.6440980612e+00
2.7024734926e+00   -2.7067759494e+00
2.4939123033e+00   -2.7716240493e+00
2.2793513913e+00   -2.8525078997e+00
2.0598334289e+00   -2.9292825094e+00
1.8377568549e+00   -3.0037867824e+00
1.6127217756e+00   -3.0757666181e+00
1.3851832158e+00   -3.1413688372e+00
1.1564703426e+00   -3.2008952072e+00
9.2758352202e-01   -3.2540550366e+00
6.9789352775e-01   -3.2996366899e+00
4.6658310439e-01   -3.3380063678e+00
2.3337348055e-01   -3.3693628769e+00
0.0000000000e+00   -3.3970605469e+00
2.8383932867e+00   -2.8408330900e+00
2.9965906162e+00   -2.8156434196e+00
2.6590253096e+00   -2.9047745192e+00
2.4630978644e+00   -2.9974682670e+00
2.2583501887e+00   -3.0892482121e+00
2.0463680276e+00   -3.1858931341e+00
1.8300315937e+00   -3.2730497150e+00
1.6090827712e+00   -3.3531263057e+00
1.3849426179e+00   -3.4257054261e+00
1.1583826938e+00   -3.4899490097e+00
9.3010998004e-01   -3.5450956628e+00
6.9981007828e-01   -3.5911894999e+00
4.6725025930e-01   -3.6277887227e+00
2.3393067942e-01   -3.6560928405e+00
0.0000000000e+00   -3.6801489258e+00
2.8145487149e+00   -2.9981782714e+00
2.9397632885e+00   -2.9409532924e+00
2.6434568165e+00   -3.1038288160e+00
2.4530088006e+00   -3.2193509544e+00
2.2520107819e+00   -3.3371996799e+00
2.0441966789e+00   -3.4504765265e+00
1.8313968804e+00   -3.5483024616e+00
1.6128837049e+00   -3.6377443503e+00
1.3902857022e+00   -3.7160180101e+00
1.1642035456e+00   -3.7840786173e+00
9.3519546109e-01   -3.8420943163e+00
7.0347619654e-01   -3.8881141605e+00
4.6998233898e-01   -3.9234374828e+00
2.3518695354e-01   -3.9479738199e+00
0.0000000000e+00   -3.9632373047e+00
5.0000000000e+00   -5.0000000000e+00
4.7826086957e+00   -5.0000000000e+00
4.7826086957e+00   -5.0500000000e+00
5.0000000000e+00   -5.0500000000e+00
4.5652173913e+00   -5.0000000000e+00
4.5652173913e+00   -5.0500000000e+00
4.3478260870e+00   -5.0000000000e+00
4.3478260870e+00   -5.0500000000e+00
4.1304347826e+00   -5.0000000000e+00
4.1304347826e+00   -5.0500000000e+00
3.9130434783e+00   -5.0000000000e+00
3.9130434783e+00   -5.0500000000e+00
3.6956521739e+00   -5.0000000000e+00
3.6956521739e+00   -5.0500000000e+00
3.4782608696e+00   -5.0000000000e+00
3.4782608696e+00   -5.0500000000e+00
3.2608695652e+00   -5.0000000000e+00
3.2608695652e+00   -5.0500000000e+00
3.0434782609e+00   -5.0000000000e+00
3.0434782609e+00   -5.0500000000e+00
2.8260869565e+00   -5.0000000000e+00
2.8260869565e+00   -5.0500000000e+00
2.6086956522e+00   -5.0000000000e+00
2.6086956522e+00   -5.0500000000e+00
2.3913043478e+00   -5.0000000000e+00
2.3913043478e+00   -5.0500000000e+00
2.1739130435e+00   -5.0000000000e+00
2.1739130435e+00   -5.0500000000e+00
1.9565217391e+00   -5.0000000000e+00
1.9565217391e+00   -5.0500000000e+00
1.7391304348e+00   -5.0000000000e+00
1.7391304348e+00   -5.0500000000e+00
1.5217391304e+00   -5.0000000000e+00
1.5217391304e+00   -5.0500000000e+00
1.3043478261e+00   -5.0000000000e+00
1.3043478261e+00   -5.0500000000e+00
1.0869565217e+00   -5.0000000000e+00
1.0869565217e+00   -5.0500000000e+00
8.6956521739e-01   -5.0000000000e+00
8.6956521739e-01   -5.0500000000e+00
6.5217391304e-01   -5.0000000000e+00
6.5217391304e-01   -5.0500000000e+00
4.3478260870e-01   -5.0000000000e+00
4.3478260870e-01   -5.0500000000e+00
2.1739130435e-01   -5.0000000000e+00
2.1739130435e-01   -5.0500000000e+00
0.0000000000e+00   -5.0000000000e+00
0.0000000000e+00   -5.0500000000e+00
4.7826086957e+00   -5.1125000000e+00
5.0000000000e+00   -5.1125000000e+00
4.5652173913e+00   -5.1125000000e+00
4.3478260870e+00   -5.1125000000e+00
4.1304347826e+00   -5.1125000000e+00
3.9130434783e+00   -5.1125000000e+00
3.6956521739e+00   -5.1125000000e+00
3.4782608696e+00   -5.1125000000e+00
3.2608695652e+00   -5.1125000000e+00
3.0434782609e+00   -5.1125000000e+00
2.8260869565e+00   -5.1125000000e+00
2.6086956522e+00   -5.1125000000e+00
2.3913043478e+00   -5.1125000000e+00
2.1739130435e+00   -5.1125000000e+00
1.9565217391e+00   -5.1125000000e+00
1.7391304348e+00   -5.1125000000e+00
1.5217391304e+00   -5.1125000000e+00
1.3043478261e+00   -5.1125000000e+00
1.0869565217e+00   -5.1125000000e+00
8.6956521739e-01   -5.1125000000e+00
6.5217391304e-01   -5.1125000000e+00
4.3478260870e-01   -5.1125000000e+00
2.1739130435e-01   -5.1125000000e+00
0.0000000000e+00   -5.1125000000e+00
4.7826086957e+00   -5.1906250000e+00
5.0000000000e+00   -5.1906250000e+00
4.5652173913e+00   -5.1906250000e+00
4.3478260870e+00   -5.1906250000e+00
4.1304347826e+00   -5.1906250000e+00
3.9130434783e+00   -5.1906250000e+00
3.6956521739e+00   -5.1906250000e+00
3.4782608696e+00   -5.1906250000e+00
3.2608695652e+00   -5.1906250000e+00
3.0434782609e+00   -5.1906250000e+00
2.8260869565e+00   -5.1906250000e+00
2.6086956522e+00   -5.1906250000e+00
2.3913043478e+00   -5.1906250000e+00
2.1739130435e+00   -5.1906250000e+00
1.9565217391e+00   -5.1906250000e+00
1.7391304348e+00   -5.1906250000e+00
1.5217391304e+00   -5.1906250000e+00
1.3043478261e+00   -5.1906250000e+00
1.0869565217e+00   -5.1906250000e+00
8.6956521739e-01   -5.1906250000e+00
6.5217391304e-01   -5.1906250000e+00
4.3478260870e-01   -5.1906250000e+00
2.1739130435e-01   -5.1906250000e+00
0.0000000000e+00   -5.1906250000e+00
4.7826086957e+00   -5.2882812500e+00
5.0000000000e+00   -5.2882812500e+00
4.5652173913e+00   -5.2882812500e+00
4.3478260870e+00   -5.2882812500e+00
4.1304347826e+00   -5.2882812500e+00
3.9130434783e+00   -5.2882812500e+00
3.6956521739e+00   -5.2882812500e+00
3.4782608696e+00   -5.2882812500e+00
3.2608695652e+00   -5.2882812500e+00
3.0434782609e+00   -5.2882812500e+00
2.8260869565e+00   -5.2882812500e+00
2.6086956522e+00   -5.2882812500e+00
2.3913043478e+00   -5.2882812500e+00
2.1739130435e+00   -5.2882812500e+00
1.9565217391e+00   -5.2882812500e+00
1.7391304348e+00   -5.2882812500e+00
1.5217391304e+00   -5.2882812500e+00
1.3043478261e+00   -5.2882812500e+00
1.0869565217e+00   -5.2882812500e+00
8.6956521739e-01   -5.2882812500e+00
6.5217391304e-01   -5.2882812500e+00
4.3478260870e-01   -5.2882812500e+00
2.1739130435e-01   -5.2882812500e+00
0.0000000000e+00   -5.2882812500e+00
4.7826086957e+00   -5.4103515625e+00
5.0000000000e+00   -5.4103515625e+00
4.5652173913e+00   -5.4103515625e+00
4.3478260870e+00   -5.4103515625e+00
4.1304347826e+00   -5.4103515625e+00
3.9130434783e+00   -5.4103515625e+00
3.6956521739e+00   -5.4103515625e+00
3.4782608696e+00   -5.4103515625e+00
3.2608695652e+00   -5.4103515625e+00
3.0434782609e+00   -5.4103515625e+00
2.8260869565e+00   -5.4103515625e+00
2.6086956522e+00   -5.4103515625e+00
2.3913043478e+00   -5.4103515625e+00
2.1739130435e+00   -5.4103515625e+00
1.9565217391e+00   -5.4103515625e+00
1.7391304348e+00   -5.4103515625e+00
1.5217391304e+00   -5.4103515625e+00
1.3043478261e+00   -5.4103515625e+00
1.0869565217e+00   -5.4103515625e+00
8.6956521739e-01   -5.4103515625e+00
6.5217391304e-01   -5.4103515625e+00
4.3478260870e-01   -5.4103515625e+00
2.1739130435e-01   -5.4103515625e+00
0.0000000000e+00   -5.4103515625e+00
4.7826086957e+00   -5.5629394531e+00
5.0000000000e+00   -5.5629394531e+00
4.5652173913e+00   -5.5629394531e+00
4.3478260870e+00   -5.5629394531e+00
4.1304347826e+00   -5.5629394531e+00
3.9130434783e+00   -5.5629394531e+00
3.6956521739e+00   -5.5629394531e+00
3.4782608696e+00   -5.5629394531e+00
3.2608695652e+00   -5.5629394531e+00
3.0434782609e+00   -5.5629394531e+00
2.8260869565e+00   -5.5629394531e+00
2.6086956522e+00   -5.5629394531e+00
2.3913043478e+00   -5.5629394531e+00
2.1739130435e+00   -5.5629394531e+00
1.9565217391e+00   -5.5629394531e+00
1.7391304348e+00   -5.5629394531e+00
1.5217391304e+00   -5.5629394531e+00
1.3043478261e+00   -5.5629394531e+00
1.0869565217e+00   -5.5629394531e+00
8.6956521739e-01   -5.5629394531e+00
6.5217391304e-01   -5.5629394531e+00
4.3478260870e-01   -5.5629394531e+00
2.1739130435e-01   -5.5629394531e+00
0.0000000000e+00   -5.5629394531e+00
4.7826086957e+00   -5.7536743164e+00
5.0000000000e+00   -5.7536743164e+00
4.5652173913e+00   -5.7536743164e+00
4.3478260870e+00   -5.7536743164e+00
4.1304347826e+00   -5.7536743164e+00
3.9130434783e+00   -5.7536743164e+00
3.6956521739e+00   -5.7536743164e+00
3.4782608696e+00   -5.7536743164e+00
3.2608695652e+00   -5.7536743164e+00
3.0434782609e+00   -5.7536743164e+00
2.8260869565e+00   -5.7536743164e+00
2.6086956522e+00   -5.7536743164e+00
2.3913043478e+00   -5.7536743164e+00
2.1739130435e+00   -5.7536743164e+00
1.9565217391e+00   -5.7536743164e+00
1.7391304348e+00   -5.7536743164e+00
1.5217391304e+00   -5.7536743164e+00
1.3043478261e+00   -5.7536743164e+00
1.0869565217e+00   -5.7536743164e+00
8.6956521739e-01   -5.7536743164e+00
6.5217391304e-01   -5.7536743164e+00
4.3478260870e-01   -5.7536743164e+00
2.1739130435e-01   -5.7536743164e+00
0.0000000000e+00   -5.7536743164e+00
0.0000000000e+00   -1.0000000000e+01
2.1739130435e-01   -1.0000000000e+01
2.1739130435e-01   -9.7876837158e+00
0.0000000000e+00   -9.7876837158e+00
4.3478260870e-01   -1.0000000000e+01
4.3478260870e-01   -9.7876837158e+00
6.5217391304e-01   -1.0000000000e+01
6.5217391304e-01   -9.7876837158e+00
8.6956521739e-01   -1.0000000000e+01
8.6956521739e-01   -9.7876837158e+00
1.0869565217e+00   -1.0000000000e+01
1.0869565217e+00   -9.7876837158e+00
1.3043478261e+00   -1.0000000000e+01
1.3043478261e+00   -9.7876837158e+00
1.5217391304e+00   -1.0000000000e+01
1.5217391304e+00   -9.7876837158e+00
1.7391304348e+00   -1.0000000000e+01
1.7391304348e+00   -9.7876837158e+00
1.9565217391e+00   -1.0000000000e+01
1.9565217391e+00   -9.7876837158e+00
2.1739130435e+00   -1.0000000000e+01
2.1739130435e+00   -9.7876837158e+00
2.3913043478e+00   -1.0000000000e+01
2.3913043478e+00   -9.7876837158e+00
2.6086956522e+00   -1.0000000000e+01
2.6086956522e+00   -9.7876837158e+00
2.8260869565e+00   -1.0000000000e+01
2.8260869565e+00   -9.7876837158e+00
3.0434782609e+00   -1.0000000000e+01
3.0434782609e+00   -9.7876837158e+00
3.2608695652e+00   -1.0000000000e+01
3.2608695652e+00   -9.7876837158e+00
3.4782608696e+00   -1.0000000000e+01
3.4782608696e+00   -9.7876837158e+00
3.6956521739e+00   -1.0000000000e+01
3.6956521739e+00   -9.7876837158e+00
3.9130434783e+00   -1.0000000000e+01
3.9130434783e+00   -9.7876837158e+00
4.1304347826e+00   -1.0000000000e+01
4.1304347826e+00   -9.7876837158e+00
4.3478260870e+00   -1.0000000000e+01
4.3478260870e+00   -9.7876837158e+00
4.5652173913e+00   -1.0000000000e+01
4.5652173913e+00   -9.7876837158e+00
4.7826086957e+00   -1.0000000000e+01
4.7826086957e+00   -9.7876837158e+00
5.0000000000e+00   -1.0000000000e+01
5.0000000000e+00   -9.7876837158e+00
2.1739130435e-01   -9.5753674316e+00
0.0000000000e+00   -9.5753674316e+00
4.3478260870e-01   -9.5753674316e+00
6.5217391304e-01   -9.5753674316e+00
8.6956521739e-01   -9.5753674316e+00
1.0869565217e+00   -9.5753674316e+00
1.3043478261e+00   -9.5753674316e+00
1.5217391304e+00   -9.5753674316e+00
1.7391304348e+00   -9.5753674316e+00
1.9565217391e+00   -9.5753674316e+00
2.1739130435e+00   -9.5753674316e+00
2.3913043478e+00   -9.5753674316e+00
2.6086956522e+00   -9.5753674316e+00
2.8260869565e+00   -9.5753674316e+00
3.0434782609e+00   -9.5753674316e+00
3.2608695652e+00   -9.5753674316e+00
3.4782608696e+00   -9.5753674316e+00
3.6956521739e+00   -9.5753674316e+00
3.9130434783e+00   -9.5753674316e+00
4.1304347826e+00   -9.5753674316e+00
4.3478260870e+00   -9.5753674316e+00
4.5652173913e+00   -9.5753674316e+00
4.7826086957e+00   -9.5753674316e+00
5.0000000000e+00   -9.5753674316e+00
2.1739130435e-01   -9.3630511475e+00
0.0000000000e+00   -9.3630511475e+00
4.3478260870e-01   -9.3630511475e+00
6.5217391304e-01   -9.3630511475e+00
8.6956521739e-01   -9.3630511475e+00
1.0869565217e+00   -9.3630511475e+00
1.3043478261e+00   -9.3630511475e+00
1.5217391304e+00   -9.3630511475e+00
1.7391304348e+00   -9.3630511475e+00
1.9565217391e+00   -9.3630511475e+00
2.1739130435e+00   -9.3630511475e+00
2.3913043478e+00   -9.3630511475e+00
2.6086956522e+00   -9.3630511475e+00
2.8260869565e+00   -9.3630511475e+00
3.0434782609e+00   -9.3630511475e+00
3.2608695652e+00   -9.3630511475e+00
3.4782608696e+00   -9.3630511475e+00
3.6956521739e+00   -9.3630511475e+00
3.9130434783e+00   -9.3630511475e+00
4.1304347826e+00   -9.3630511475e+00
4.3478260870e+00   -9.3630511475e+00
4.5652173913e+00   -9.3630511475e+00
4.7826086957e+00   -9.3630511475e+00
5.0000000000e+00   -9.3630511475e+00
2.1739130435e-01   -9.1507348633e+00
0.0000000000e+00   -9.1507348633e+00
4.3478260870e-01   -9.1507348633e+00
6.5217391304e-01   -9.1507348633e+00
8.6956521739e-01   -9.1507348633e+00
1.0869565217e+00   -9.1507348633e+00
1.3043478261e+00   -9.1507348633e+00
1.5217391304e+00   -9.1507348633e+00
1.7391304348e+00   -9.1507348633e+00
1.9565217391e+00   -9.1507348633e+00
2.1739130435e+00   -9.1507348633e+00
2.3913043478e+00   -9.1507348633e+00
2.6086956522e+00   -9.1507348633e+00
2.8260869565e+00   -9.1507348633e+00
3.0434782609e+00   -9.1507348633e+00
3.2608695652e+00   -9.1507348633e+00
3.4782608696e+00   -9.1507348633e+00
3.6956521739e+00   -9.1507348633e+00
3.9130434783e+00   -9.1507348633e+00
4.1304347826e+00   -9.1507348633e+00
4.3478260870e+00   -9.1507348633e+00
4.5652173913e+00   -9.1507348633e+00
4.7826086957e+00   -9.1507348633e+00
5.0000000000e+00   -9.1507348633e+00
2.1739130435e-01   -8.9384185791e+00
0.0000000000e+00   -8.9384185791e+00
4.3478260870e-01   -8.9384185791e+00
6.5217391304e-01   -8.9384185791e+00
8.6956521739e-01   -8.9384185791e+00
1.0869565217e+00   -8.9384185791e+00
1.3043478261e+00   -8.9384185791e+00
1.5217391304e+00   -8.9384185791e+00
1.7391304348e+00   -8.9384185791e+00
1.9565217391e+00   -8.9384185791e+00
2.1739130435e+00   -8.9384185791e+00
2.3913043478e+00   -8.9384185791e+00
2.6086956522e+00   -8.9384185791e+00
2.8260869565e+00   -8.9384185791e+00
3.0434782609e+00   -8.9384185791e+00
3.2608695652e+00   -8.9384185791e+00
3.4782608696e+00   -8.9384185791e+00
3.6956521739e+00   -8.9384185791e+00
3.9130434783e+00   -8.9384185791e+00
4.1304347826e+00   -8.9384185791e+00
4.3478260870e+00   -8.9384185791e+00
4.5652173913e+00   -8.9384185791e+00
4.7826086957e+00   -8.9384185791e+00
5.0000000000e+00   -8.9384185791e+00
2.1739130435e-01   -8.7261022949e+00
0.0000000000e+00   -8.7261022949e+00
4.3478260870e-01   -8.7261022949e+00
6.5217391304e-01   -8.7261022949e+00
8.6956521739e-01   -8.7261022949e+00
1.0869565217e+00   -8.7261022949e+00
1.3043478261e+00   -8.7261022949e+00
1.5217391304e+00   -8.7261022949e+00
1.7391304348e+00   -8.7261022949e+00
1.9565217391e+00   -8.7261022949e+00
2.1739130435e+00   -8.7261022949e+00
2.3913043478e+00   -8.7261022949e+00
2.6086956522e+00   -8.7261022949e+00
2.8260869565e+00   -8.7261022949e+00
3.0434782609e+00   -8.7261022949e+00
3.2608695652e+00   -8.7261022949e+00
3.4782608696e+00   -8.7261022949e+00
3.6956521739e+00   -8.7261022949e+00
3.9130434783e+00   -8.7261022949e+00
4.1304347826e+00   -8.7261022949e+00
4.3478260870e+00   -8.7261022949e+00
4.5652173913e+00   -8.7261022949e+00
4.7826086957e+00   -8.7261022949e+00
5.0000000000e+00   -8.7261022949e+00
2.1739130435e-01   -8.5137860107e+00
0.0000000000e+00   -8.5137860107e+00
4.3478260870e-01   -8.5137860107e+00
6.5217391304e-01   -8.5137860107e+00
8.6956521739e-01   -8.5137860107e+00
1.0869565217e+00   -8.5137860107e+00
1.3043478261e+00   -8.5137860107e+00
1.5217391304e+00   -8.5137860107e+00
1.7391304348e+00   -8.5137860107e+00
1.9565217391e+00   -8.5137860107e+00
2.1739130435e+00   -8.5137860107e+00
2.3913043478e+00   -8.5137860107e+00
2.6086956522e+00   -8.5137860107e+00
2.8260869565e+00   -8.5137860107e+00
3.0434782609e+00   -8.5137860107e+00
3.2608695652e+00   -8.5137860107e+00
3.4782608696e+00   -8.5137860107e+00
3.6956521739e+00   -8.5137860107e+00
3.9130434783e+00   -8.5137860107e+00
4.1304347826e+00   -8.5137860107e+00
4.3478260870e+00   -8.5137860107e+00
4.5652173913e+00   -8.5137860107e+00
4.7826086957e+00   -8.5137860107e+00
5.0000000000e+00   -8.5137860107e+00
2.1739130435e-01   -8.3014697266e+00
0.0000000000e+00   -8.3014697266e+00
4.3478260870e-01   -8.3014697266e+00
6.5217391304e-01   -8.3014697266e+00
8.6956521739e-01   -8.3014697266e+00
1.0869565217e+00   -8.3014697266e+00
1.3043478261e+00   -8.3014697266e+00
1.5217391304e+00   -8.3014697266e+00
1.7391304348e+00   -8.3014697266e+00
1.9565217391e+00   -8.3014697266e+00
2.1739130435e+00   -8.3014697266e+00
2.3913043478e+00   -8.3014697266e+00
2.6086956522e+00   -8.3014697266e+00
2.8260869565e+00   -8.3014697266e+00
3.0434782609e+00   -8.3014697266e+00
3.2608695652e+00   -8.3014697266e+00
3.4782608696e+00   -8.3014697266e+00
3.6956521739e+00   -8.3014697266e+00
3.9130434783e+00   -8.3014697266e+00
4.1304347826e+00   -8.3014697266e+00
4.3478260870e+00   -8.3014697266e+00
4.5652173913e+00   -8.3014697266e+00
4.7826086957e+00   -8.3014697266e+00
5.0000000000e+00   -8.3014697266e+00
2.1739130435e-01   -8.0891534424e+00
0.0000000000e+00   -8.0891534424e+00
4.3478260870e-01   -8.0891534424e+00
6.5217391304e-01   -8.0891534424e+00
8.6956521739e-01   -8.0891534424e+00
1.0869565217e+00   -8.0891534424e+00
1.3043478261e+00   -8.0891534424e+00
1.5217391304e+00   -8.0891534424e+00
1.7391304348e+00   -8.0891534424e+00
1.9565217391e+00   -8.0891534424e+00
2.1739130435e+00   -8.0891534424e+00
2.3913043478e+00   -8.0891534424e+00
2.6086956522e+00   -8.0891534424e+00
2.8260869565e+00   -8.0891534424e+00
3.0434782609e+00   -8.0891534424e+00
3.2608695652e+00   -8.0891534424e+00
3.4782608696e+00   -8.0891534424e+00
3.6956521739e+00   -8.0891534424e+00
3.9130434783e+00   -8.0891534424e+00
4.1304347826e+00   -8.0891534424e+00
4.3478260870e+00   -8.0891534424e+00
4.5652173913e+00   -8.0891534424e+00
4.7826086957e+00   -8.0891534424e+00
5.0000000000e+00   -8.0891534424e+00
2.1739130435e-01   -7.8768371582e+00
0.0000000000e+00   -7.8768371582e+00
4.3478260870e-01   -7.8768371582e+00
6.5217391304e-01   -7.8768371582e+00
8.6956521739e-01   -7.8768371582e+00
1.0869565217e+00   -7.8768371582e+00
1.3043478261e+00   -7.8768371582e+00
1.5217391304e+00   -7.8768371582e+00
1.7391304348e+00   -7.8768371582e+00
1.9565217391e+00   -7.8768371582e+00
2.1739130435e+00   -7.8768371582e+00
2.3913043478e+00   -7.8768371582e+00
2.6086956522e+00   -7.8768371582e+00
2.8260869565e+00   -7.8768371582e+00
3.0434782609e+00   -7.8768371582e+00
3.2608695652e+00   -7.8768371582e+00
3.4782608696e+00   -7.8768371582e+00
3.6956521739e+00   -7.8768371582e+00
3.9130434783e+00   -7.8768371582e+00
4.1304347826e+00   -7.8768371582e+00
4.3478260870e+00   -7.8768371582e+00
4.5652173913e+00   -7.8768371582e+00
4.7826086957e+00   -7.8768371582e+00
5.0000000000e+00   -7.8768371582e+00
2.1739130435e-01   -7.6645208740e+00
0.0000000000e+00   -7.6645208740e+00
4.3478260870e-01   -7.6645208740e+00
6.5217391304e-01   -7.6645208740e+00
8.6956521739e-01   -7.6645208740e+00
1.0869565217e+00   -7.6645208740e+00
1.3043478261e+00   -7.6645208740e+00
1.5217391304e+00   -7.6645208740e+00
1.7391304348e+00   -7.6645208740e+00
1.9565217391e+00   -7.6645208740e+00
2.1739130435e+00   -7.6645208740e+00
2.3913043478e+00   -7.6645208740e+00
2.6086956522e+00   -7.6645208740e+00
2.8260869565e+00   -7.6645208740e+00
3.0434782609e+00   -7.6645208740e+00
3.2608695652e+00   -7.6645208740e+00
3.4782608696e+00   -7.6645208740e+00
3.6956521739e+00   -7.6645208740e+00
3.9130434783e+00   -7.6645208740e+00
4.1304347826e+00   -7.6645208740e+00
4.3478260870e+00   -7.6645208740e+00
4.5652173913e+00   -7.6645208740e+00
4.7826086957e+00   -7.6645208740e+00
5.0000000000e+00   -7.6645208740e+00
2.1739130435e-01   -7.4522045898e+00
0.0000000000e+00   -7.4522045898e+00
4.3478260870e-01   -7.4522045898e+00
6.5217391304e-01   -7.4522045898e+00
8.6956521739e-01   -7.4522045898e+00
1.0869565217e+00   -7.4522045898e+00
1.3043478261e+00   -7.4522045898e+00
1.5217391304e+00   -7.4522045898e+00
1.7391304348e+00   -7.4522045898e+00
1.9565217391e+00   -7.4522045898e+00
2.1739130435e+00   -7.4522045898e+00
2.3913043478e+00   -7.4522045898e+00
2.6086956522e+00   -7.4522045898e+00
2.8260869565e+00   -7.4522045898e+00
3.0434782609e+00   -7.4522045898e+00
3.2608695652e+00   -7.4522045898e+00
3.4782608696e+00   -7.4522045898e+00
3.6956521739e+00   -7.4522045898e+00
3.9130434783e+00   -7.4522045898e+00
4.1304347826e+00   -7.4522045898e+00
4.3478260870e+00   -7.4522045898e+00
4.5652173913e+00   -7.4522045898e+00
4.7826086957e+00   -7.4522045898e+00
5.0000000000e+00   -7.4522045898e+00
2.1739130435e-01   -7.2398883057e+00
0.0000000000e+00   -7.2398883057e+00
4.3478260870e-01   -7.2398883057e+00
6.5217391304e-01   -7.2398883057e+00
8.6956521739e-01   -7.2398883057e+00
1.0869565217e+00   -7.2398883057e+00
1.3043478261e+00   -7.2398883057e+00
1.5217391304e+00   -7.2398883057e+00
1.7391304348e+00   -7.2398883057e+00
1.9565217391e+00   -7.2398883057e+00
2.1739130435e+00   -7.2398883057e+00
2.3913043478e+00   -7.2398883057e+00
2.6086956522e+00   -7.2398883057e+00
2.8260869565e+00   -7.2398883057e+00
3.0434782609e+00   -7.2398883057e+00
3.2608695652e+00   -7.2398883057e+00
3.4782608696e+00   -7.2398883057e+00
3.6956521739e+00   -7.2398883057e+00
3.9130434783e+00   -7.2398883057e+00
4.1304347826e+00   -7.2398883057e+00
4.3478260870e+00   -7.2398883057e+00
4.5652173913e+00   -7.2398883057e+00
4.7826086957e+00   -7.2398883057e+00
5.0000000000e+00   -7.2398883057e+00
2.1739130435e-01   -7.0275720215e+00
0.0000000000e+00   -7.0275720215e+00
4.3478260870e-01   -7.0275720215e+00
6.5217391304e-01   -7.0275720215e+00
8.6956521739e-01   -7.0275720215e+00
1.0869565217e+00   -7.0275720215e+00
1.3043478261e+00   -7.0275720215e+00
1.5217391304e+00   -7.0275720215e+00
1.7391304348e+00   -7.0275720215e+00
1.9565217391e+00   -7.0275720215e+00
2.1739130435e+00   -7.0275720215e+00
2.3913043478e+00   -7.0275720215e+00
2.6086956522e+00   -7.0275720215e+00
2.8260869565e+00   -7.0275720215e+00
3.0434782609e+00   -7.0275720215e+00
3.2608695652e+00   -7.0275720215e+00
3.4782608696e+00   -7.0275720215e+00
3.6956521739e+00   -7.0275720215e+00
3.9130434783e+00   -7.0275720215e+00
4.1304347826e+00   -7.0275720215e+00
4.3478260870e+00   -7.0275720215e+00
4.5652173913e+00   -7.0275720215e+00
4.7826086957e+00   -7.0275720215e+00
5.0000000000e+00   -7.0275720215e+00
2.1739130435e-01   -6.8152557373e+00
0.0000000000e+00   -6.8152557373e+00
4.3478260870e-01   -6.8152557373e+00
6.5217391304e-01   -6.8152557373e+00
8.6956521739e-01   -6.8152557373e+00
1.0869565217e+00   -6.8152557373e+00
1.3043478261e+00   -6.8152557373e+00
1.5217391304e+00   -6.8152557373e+00
1.7391304348e+00   -6.8152557373e+00
1.9565217391e+00   -6.8152557373e+00
2.1739130435e+00   -6.8152557373e+00
2.3913043478e+00   -6.8152557373e+00
2.6086956522e+00   -6.8152557373e+00
2.8260869565e+00   -6.8152557373e+00
3.0434782609e+00   -6.8152557373e+00
3.2608695652e+00   -6.8152557373e+00
3.4782608696e+00   -6.8152557373e+00
3.6956521739e+00   -6.8152557373e+00
3.9130434783e+00   -6.8152557373e+00
4.1304347826e+00   -6.8152557373e+00
4.3478260870e+00   -6.8152557373e+00
4.5652173913e+00   -6.8152557373e+00
4.7826086957e+00   -6.8152557373e+00
5.0000000000e+00   -6.8152557373e+00
2.1739130435e-01   -6.6029394531e+00
0.0000000000e+00   -6.6029394531e+00
4.3478260870e-01   -6.6029394531e+00
6.5217391304e-01   -6.6029394531e+00
8.6956521739e-01   -6.6029394531e+00
1.0869565217e+00   -6.6029394531e+00
1.3043478261e+00   -6.6029394531e+00
1.5217391304e+00   -6.6029394531e+00
1.7391304348e+00   -6.6029394531e+00
1.9565217391e+00   -6.6029394531e+00
2.1739130435e+00   -6.6029394531e+00
2.3913043478e+00   -6.6029394531e+00
2.6086956522e+00   -6.6029394531e+00
2.8260869565e+00   -6.6029394531e+00
3.0434782609e+00   -6.6029394531e+00
3.2608695652e+00   -6.6029394531e+00
3.4782608696e+00   -6.6029394531e+00
3.6956521739e+00   -6.6029394531e+00
3.9130434783e+00   -6.6029394531e+00
4.1304347826e+00   -6.6029394531e+00
4.3478260870e+00   -6.6029394531e+00
4.5652173913e+00   -6.6029394531e+00
4.7826086957e+00   -6.6029394531e+00
5.0000000000e+00   -6.6029394531e+00
2.1739130435e-01   -6.3906231689e+00
0.0000000000e+00   -6.3906231689e+00
4.3478260870e-01   -6.3906231689e+00
6.5217391304e-01   -6.3906231689e+00
8.6956521739e-01   -6.3906231689e+00
1.0869565217e+00   -6.3906231689e+00
1.3043478261e+00   -6.3906231689e+00
1.5217391304e+00   -6.3906231689e+00
1.7391304348e+00   -6.3906231689e+00
1.9565217391e+00   -6.3906231689e+00
2.1739130435e+00   -6.3906231689e+00
2.3913043478e+00   -6.3906231689e+00
2.6086956522e+00   -6.3906231689e+00
2.8260869565e+00   -6.3906231689e+00
3.0434782609e+00   -6.3906231689e+00
3.2608695652e+00   -6.3906231689e+00
3.4782608696e+00   -6.3906231689e+00
3.6956521739e+00   -6.3906231689e+00
3.9130434783e+00   -6.3906231689e+00
4.1304347826e+00   -6.3906231689e+00
4.3478260870e+00   -6.3906231689e+00
4.5652173913e+00   -6.3906231689e+00
4.7826086957e+00   -6.3906231689e+00
5.0000000000e+00   -6.3906231689e+00
2.1739130435e-01   -6.1783068848e+00
0.0000000000e+00   -6.1783068848e+00
4.3478260870e-01   -6.1783068848e+00
6.5217391304e-01   -6.1783068848e+00
8.6956521739e-01   -6.1783068848e+00
1.0869565217e+00   -6.1783068848e+00
1.3043478261e+00   -6.1783068848e+00
1.5217391304e+00   -6.1783068848e+00
1.7391304348e+00   -6.1783068848e+00
1.9565217391e+00   -6.1783068848e+00
2.1739130435e+00   -6.1783068848e+00
2.3913043478e+00   -6.1783068848e+00
2.6086956522e+00   -6.1783068848e+00
2.8260869565e+00   -6.1783068848e+00
3.0434782609e+00   -6.1783068848e+00
3.2608695652e+00   -6.1783068848e+00
3.4782608696e+00   -6.1783068848e+00
3.6956521739e+00   -6.1783068848e+00
3.9130434783e+00   -6.1783068848e+00
4.1304347826e+00   -6.1783068848e+00
4.3478260870e+00   -6.1783068848e+00
4.5652173913e+00   -6.1783068848e+00
4.7826086957e+00   -6.1783068848e+00
5.0000000000e+00   -6.1783068848e+00
2.1739130435e-01   -5.9659906006e+00
0.0000000000e+00   -5.9659906006e+00
4.3478260870e-01   -5.9659906006e+00
6.5217391304e-01   -5.9659906006e+00
8.6956521739e-01   -5.9659906006e+00
1.0869565217e+00   -5.9659906006e+00
1.3043478261e+00   -5.9659906006e+00
1.5217391304e+00   -5.9659906006e+00
1.7391304348e+00   -5.9659906006e+00
1.9565217391e+00   -5.9659906006e+00
2.1739130435e+00   -5.9659906006e+00
2.3913043478e+00   -5.9659906006e+00
2.6086956522e+00   -5.9659906006e+00
2.8260869565e+00   -5.9659906006e+00
3.0434782609e+00   -5.9659906006e+00
3.2608695652e+00   -5.9659906006e+00
3.4782608696e+00   -5.9659906006e+00
3.6956521739e+00   -5.9659906006e+00
3.9130434783e+00   -5.9659906006e+00
4.1304347826e+00   -5.9659906006e+00
4.3478260870e+00   -5.9659906006e+00
4.5652173913e+00   -5.9659906006e+00
4.7826086957e+00   -5.9659906006e+00
5.0000000000e+00   -5.9659906006e+00
))

(0 "Faces:")
(13 (a 1 7cc 2 2)
(
106 104 d2 e0
115 114 e0 ee
124 123 ee fc
133 132 fc 10a
142 141 10a 118
151 150 118 126
160 15f 126 134
16f 16e 134 142
17e 17d 142 150
18d 18c 150 15e
19c 19b 15e 16c
1ab 1aa 16c 17a
1ba 1b9 17a 188
1c9 1c8 188 189
cd cc 189 a9
b0 af a9 8d
93 92 8d 71
76 75 71 55
59 58 55 39
3c 3b 39 1d
4 3 1d 1
2 3 1 2
5 6 2 3
7 8 3 4
9 a 4 5
b c 5 6
d e 6 7
f 10 7 8
11 12 8 9
13 14 9 a
15 16 a b
17 18 b c
19 1a c d
1b 1c d e
1d 1e e f
1f 20 f 10
21 22 10 11
23 24 11 12
25 26 12 13
27 28 13 14
29 2a 14 15
2b 2c 15 16
2d 2e 16 17
2f 30 17 18
31 32 18 19
33 34 19 1a
35 36 1a 1b
37 38 1b 1c
3a 38 1c 38
57 56 38 54
74 73 54 70
91 90 70 8c
ae ad 8c a8
cb ca a8 c4
e8 e7 c4 1a4
e9 ec 1a4 c5
ea eb c5 c6
ed ee c6 c7
ef f0 c7 c8
f1 f2 c8 c9
f3 f4 c9 ca
f5 f6 ca cb
f7 f8 cb cc
f9 fa cc cd
fb fc cd ce
fd fe ce cf
ff 100 cf d0
101 102 d0 d1
103 104 d1 d2
e7 ca c4 c3
e7 e6 c3 1a3
e7 ec 1a3 1a4
e6 c9 c3 c2
e6 e5 c2 1a2
e6 108 1a2 1a3
e5 c8 c2 c1
e5 e4 c1 1a1
e5 117 1a1 1a2
e4 c7 c1 c0
e4 e3 c0 1a0
e4 126 1a0 1a1
e3 c6 c0 bf
e3 e2 bf 19f
e3 135 19f 1a0
e2 c5 bf be
e2 e1 be 19e
e2 144 19e 19f
e1 c4 be bd
e1 e0 bd 19d
e1 153 19d 19e
e0 c3 bd bc
e0 df bc 19c
e0 162 19c 19d
df c2 bc bb
df de bb 19b
df 171 19b 19c
de c1 bb ba
de dd ba 19a
de 180 19a 19b
dd c0 ba b9
dd dc b9 199
dd 18f 199 19a
dc bf b9 b8
dc db b8 198
dc 19e 198 199
db be b8 b7
db da b7 197
db 1ad 197 198
da bd b7 b6
da d9 b6 196
da 1bc 196 197
d9 bc b6 b5
d9 d8 b5 195
d9 1bb 195 196
d8 bb b5 b4
d8 d7 b4 194
d8 1bd 194 195
d7 ba b4 b3
d7 d6 b3 193
d7 1be 193 194
d6 b9 b3 b2
d6 d5 b2 192
d6 1bf 192 193
d5 b8 b2 b1
d5 d4 b1 191
d5 1c0 191 192
d4 b7 b1 b0
d4 d3 b0 190
d4 1c1 190 191
d3 b6 b0 af
d3 d2 af 18f
d3 1c2 18f 190
d2 b5 af ae
d2 d1 ae 18e
d2 1c3 18e 18f
d1 b4 ae ad
d1 d0 ad 18d
d1 1c4 18d 18e
d0 b3 ad ac
d0 cf ac 18c
d0 1c5 18c 18d
cf b2 ac ab
cf ce ab 18b
cf 1c6 18b 18c
ce b1 ab aa
ce cc aa 18a
ce 1c7 18a 18b
cc af aa a9
cc 1c8 189 18a
3 6 1e 2
3 3b 1d 1e
6 8 1f 3
6 3d 1e 1f
8 a 20 4
8 3e 1f 20
a c 21 5
a 3f 20 21
c e 22 6
c 40 21 22
e 10 23 7
e 41 22 23
10 12 24 8
10 42 23 24
12 14 25 9
12 43 24 25
14 16 26 a
14 44 25 26
16 18 27 b
16 45 26 27
18 1a 28 c
18 46 27 28
1a 1c 29 d
1a 47 28 29
1c 1e 2a e
1c 48 29 2a
1e 20 2b f
1e 49 2a 2b
20 22 2c 10
20 4a 2b 2c
22 24 2d 11
22 4b 2c 2d
24 26 2e 12
24 4c 2d 2e
26 28 2f 13
26 4d 2e 2f
28 2a 30 14
28 4e 2f 30
2a 2c 31 15
2a 4f 30 31
2c 2e 32 16
2c 50 31 32
2e 30 33 17
2e 51 32 33
30 32 34 18
30 52 33 34
32 34 35 19
32 53 34 35
34 36 36 1a
34 54 35 36
36 38 37 1b
36 55 36 37
38 56 37 38
3b 3d 3a 1e
3b 58 39 3a
3d 3e 3b 1f
3d 5a 3a 3b
3e 3f 3c 20
3e 5b 3b 3c
3f 40 3d 21
3f 5c 3c 3d
40 41 3e 22
40 5d 3d 3e
41 42 3f 23
41 5e 3e 3f
42 43 40 24
42 5f 3f 40
43 44 41 25
43 60 40 41
44 45 42 26
44 61 41 42
45 46 43 27
45 62 42 43
46 47 44 28
46 63 43 44
47 48 45 29
47 64 44 45
48 49 46 2a
48 65 45 46
49 4a 47 2b
49 66 46 47
4a 4b 48 2c
4a 67 47 48
4b 4c 49 2d
4b 68 48 49
4c 4d 4a 2e
4c 69 49 4a
4d 4e 4b 2f
4d 6a 4a 4b
4e 4f 4c 30
4e 6b 4b 4c
4f 50 4d 31
4f 6c 4c 4d
50 51 4e 32
50 6d 4d 4e
51 52 4f 33
51 6e 4e 4f
52 53 50 34
52 6f 4f 50
53 54 51 35
53 70 50 51
54 55 52 36
54 71 51 52
55 56 53 37
55 72 52 53
56 73 53 54
58 5a 56 3a
58 75 55 56
5a 5b 57 3b
5a 77 56 57
5b 5c 58 3c
5b 78 57 58
5c 5d 59 3d
5c 79 58 59
5d 5e 5a 3e
5d 7a 59 5a
5e 5f 5b 3f
5e 7b 5a 5b
5f 60 5c 40
5f 7c 5b 5c
60 61 5d 41
60 7d 5c 5d
61 62 5e 42
61 7e 5d 5e
62 63 5f 43
62 7f 5e 5f
63 64 60 44
63 80 5f 60
64 65 61 45
64 81 60 61
65 66 62 46
65 82 61 62
66 67 63 47
66 83 62 63
67 68 64 48
67 84 63 64
68 69 65 49
68 85 64 65
69 6a 66 4a
69 86 65 66
6a 6b 67 4b
6a 87 66 67
6b 6c 68 4c
6b 88 67 68
6c 6d 69 4d
6c 89 68 69
6d 6e 6a 4e
6d 8a 69 6a
6e 6f 6b 4f
6e 8b 6a 6b
6f 70 6c 50
6f 8c 6b 6c
70 71 6d 51
70 8d 6c 6d
71 72 6e 52
71 8e 6d 6e
72 73 6f 53
72 8f 6e 6f
73 90 6f 70
75 77 72 56
75 92 71 72
77 78 73 57
77 94 72 73
78 79 74 58
78 95 73 74
79 7a 75 59
79 96 74 75
7a 7b 76 5a
7a 97 75 76
7b 7c 77 5b
7b 98 76 77
7c 7d 78 5c
7c 99 77 78
7d 7e 79 5d
7d 9a 78 79
7e 7f 7a 5e
7e 9b 79 7a
7f 80 7b 5f
7f 9c 7a 7b
80 81 7c 60
80 9d 7b 7c
81 82 7d 61
81 9e 7c 7d
82 83 7e 62
82 9f 7d 7e
83 84 7f 63
83 a0 7e 7f
84 85 80 64
84 a1 7f 80
85 86 81 65
85 a2 80 81
86 87 82 66
86 a3 81 82
87 88 83 67
87 a4 82 83
88 89 84 68
88 a5 83 84
89 8a 85 69
89 a6 84 85
8a 8b 86 6a
8a a7 85 86
8b 8c 87 6b
8b a8 86 87
8c 8d 88 6c
8c a9 87 88
8d 8e 89 6d
8d aa 88 89
8e 8f 8a 6e
8e ab 89 8a
8f 90 8b 6f
8f ac 8a 8b
90 ad 8b 8c
92 94 8e 72
92 af 8d 8e
94 95 8f 73
94 b1 8e 8f
95 96 90 74
95 b2 8f 90
96 97 91 75
96 b3 90 91
97 98 92 76
97 b4 91 92
98 99 93 77
98 b5 92 93
99 9a 94 78
99 b6 93 94
9a 9b 95 79
9a b7 94 95
9b 9c 96 7a
9b b8 95 96
9c 9d 97 7b
9c b9 96 97
9d 9e 98 7c
9d ba 97 98
9e 9f 99 7d
9e bb 98 99
9f a0 9a 7e
9f bc 99 9a
a0 a1 9b 7f
a0 bd 9a 9b
a1 a2 9c 80
a1 be 9b 9c
a2 a3 9d 81
a2 bf 9c 9d
a3 a4 9e 82
a3 c0 9d 9e
a4 a5 9f 83
a4 c1 9e 9f
a5 a6 a0 84
a5 c2 9f a0
a6 a7 a1 85
a6 c3 a0 a1
a7 a8 a2 86
a7 c4 a1 a2
a8 a9 a3 87
a8 c5 a2 a3
a9 aa a4 88
a9 c6 a3 a4
aa ab a5 89
aa c7 a4 a5
ab ac a6 8a
ab c8 a5 a6
ac ad a7 8b
ac c9 a6 a7
ad ca a7 a8
af b1 aa 8e
b1 b2 ab 8f
b2 b3 ac 90
b3 b4 ad 91
b4 b5 ae 92
b5 b6 af 93
b6 b7 b0 94
b7 b8 b1 95
b8 b9 b2 96
b9 ba b3 97
ba bb b4 98
bb bc b5 99
bc bd b6 9a
bd be b7 9b
be bf b8 9c
bf c0 b9 9d
c0 c1 ba 9e
c1 c2 bb 9f
c2 c3 bc a0
c3 c4 bd a1
c4 c5 be a2
c5 c6 bf a3
c6 c7 c0 a4
c7 c8 c1 a5
c8 c9 c2 a6
c9 ca c3 a7
1bc 1bb 196 17b
1bc 1ad 17b 197
1c8 1b9 188 187
1c8 1c7 187 18a
1c7 1b8 187 186
1c7 1c6 186 18b
1c6 1b7 186 185
1c6 1c5 185 18c
1c5 1b6 185 184
1c5 1c4 184 18d
1c4 1b5 184 183
1c4 1c3 183 18e
1c3 1b4 183 182
1c3 1c2 182 18f
1c2 1b3 182 181
1c2 1c1 181 190
1c1 1b2 181 180
1c1 1c0 180 191
1c0 1b1 180 17f
1c0 1bf 17f 192
1bf 1b0 17f 17e
1bf 1be 17e 193
1be 1af 17e 17d
1be 1bd 17d 194
1bd 1ae 17d 17c
1bd 1bb 17c 195
1bb 1ac 17c 17b
ec eb d3 c5
ec 108 1a3 d3
108 107 e1 d3
108 117 1a2 e1
117 116 ef e1
117 126 1a1 ef
126 125 fd ef
126 135 1a0 fd
135 134 10b fd
135 144 19f 10b
144 143 119 10b
144 153 19e 119
153 152 127 119
153 162 19d 127
162 161 135 127
162 171 19c 135
171 170 143 135
171 180 19b 143
180 17f 151 143
180 18f 19a 151
18f 18e 15f 151
18f 19e 199 15f
19e 19d 16d 15f
19e 1ad 198 16d
1ad 1ac 17b 16d
eb ee d4 c6
eb 107 d3 d4
ee f0 d5 c7
ee 109 d4 d5
f0 f2 d6 c8
f0 10a d5 d6
f2 f4 d7 c9
f2 10b d6 d7
f4 f6 d8 ca
f4 10c d7 d8
f6 f8 d9 cb
f6 10d d8 d9
f8 fa da cc
f8 10e d9 da
fa fc db cd
fa 10f da db
fc fe dc ce
fc 110 db dc
fe 100 dd cf
fe 111 dc dd
100 102 de d0
100 112 dd de
102 104 df d1
102 113 de df
104 114 df e0
107 109 e2 d4
107 116 e1 e2
109 10a e3 d5
109 118 e2 e3
10a 10b e4 d6
10a 119 e3 e4
10b 10c e5 d7
10b 11a e4 e5
10c 10d e6 d8
10c 11b e5 e6
10d 10e e7 d9
10d 11c e6 e7
10e 10f e8 da
10e 11d e7 e8
10f 110 e9 db
10f 11e e8 e9
110 111 ea dc
110 11f e9 ea
111 112 eb dd
111 120 ea eb
112 113 ec de
112 121 eb ec
113 114 ed df
113 122 ec ed
114 123 ed ee
116 118 f0 e2
116 125 ef f0
118 119 f1 e3
118 127 f0 f1
119 11a f2 e4
119 128 f1 f2
11a 11b f3 e5
11a 129 f2 f3
11b 11c f4 e6
11b 12a f3 f4
11c 11d f5 e7
11c 12b f4 f5
11d 11e f6 e8
11d 12c f5 f6
11e 11f f7 e9
11e 12d f6 f7
11f 120 f8 ea
11f 12e f7 f8
120 121 f9 eb
120 12f f8 f9
121 122 fa ec
121 130 f9 fa
122 123 fb ed
122 131 fa fb
123 132 fb fc
125 127 fe f0
125 134 fd fe
127 128 ff f1
127 136 fe ff
128 129 100 f2
128 137 ff 100
129 12a 101 f3
129 138 100 101
12a 12b 102 f4
12a 139 101 102
12b 12c 103 f5
12b 13a 102 103
12c 12d 104 f6
12c 13b 103 104
12d 12e 105 f7
12d 13c 104 105
12e 12f 106 f8
12e 13d 105 106
12f 130 107 f9
12f 13e 106 107
130 131 108 fa
130 13f 107 108
131 132 109 fb
131 140 108 109
132 141 109 10a
134 136 10c fe
134 143 10b 10c
136 137 10d ff
136 145 10c 10d
137 138 10e 100
137 146 10d 10e
138 139 10f 101
138 147 10e 10f
139 13a 110 102
139 148 10f 110
13a 13b 111 103
13a 149 110 111
13b 13c 112 104
13b 14a 111 112
13c 13d 113 105
13c 14b 112 113
13d 13e 114 106
13d 14c 113 114
13e 13f 115 107
13e 14d 114 115
13f 140 116 108
13f 14e 115 116
140 141 117 109
140 14f 116 117
141 150 117 118
143 145 11a 10c
143 152 119 11a
145 146 11b 10d
145 154 11a 11b
146 147 11c 10e
146 155 11b 11c
147 148 11d 10f
147 156 11c 11d
148 149 11e 110
148 157 11d 11e
149 14a 11f 111
149 158 11e 11f
14a 14b 120 112
14a 159 11f 120
14b 14c 121 113
14b 15a 120 121
14c 14d 122 114
14c 15b 121 122
14d 14e 123 115
14d 15c 122 123
14e 14f 124 116
14e 15d 123 124
14f 150 125 117
14f 15e 124 125
150 15f 125 126
152 154 128 11a
152 161 127 128
154 155 129 11b
154 163 128 129
155 156 12a 11c
155 164 129 12a
156 157 12b 11d
156 165 12a 12b
157 158 12c 11e
157 166 12b 12c
158 159 12d 11f
158 167 12c 12d
159 15a 12e 120
159 168 12d 12e
15a 15b 12f 121
15a 169 12e 12f
15b 15c 130 122
15b 16a 12f 130
15c 15d 131 123
15c 16b 130 131
15d 15e 132 124
15d 16c 131 132
15e 15f 133 125
15e 16d 132 133
15f 16e 133 134
161 163 136 128
161 170 135 136
163 164 137 129
163 172 136 137
164 165 138 12a
164 173 137 138
165 166 139 12b
165 174 138 139
166 167 13a 12c
166 175 139 13a
167 168 13b 12d
167 176 13a 13b
168 169 13c 12e
168 177 13b 13c
169 16a 13d 12f
169 178 13c 13d
16a 16b 13e 130
16a 179 13d 13e
16b 16c 13f 131
16b 17a 13e 13f
16c 16d 140 132
16c 17b 13f 140
16d 16e 141 133
16d 17c 140 141
16e 17d 141 142
170 172 144 136
170 17f 143 144
172 173 145 137
172 181 144 145
173 174 146 138
173 182 145 146
174 175 147 139
174 183 146 147
175 176 148 13a
175 184 147 148
176 177 149 13b
176 185 148 149
177 178 14a 13c
177 186 149 14a
178 179 14b 13d
178 187 14a 14b
179 17a 14c 13e
179 188 14b 14c
17a 17b 14d 13f
17a 189 14c 14d
17b 17c 14e 140
17b 18a 14d 14e
17c 17d 14f 141
17c 18b 14e 14f
17d 18c 14f 150
17f 181 152 144
17f 18e 151 152
181 182 153 145
181 190 152 153
182 183 154 146
182 191 153 154
183 184 155 147
183 192 154 155
184 185 156 148
184 193 155 156
185 186 157 149
185 194 156 157
186 187 158 14a
186 195 157 158
187 188 159 14b
187 196 158 159
188 189 15a 14c
188 197 159 15a
189 18a 15b 14d
189 198 15a 15b
18a 18b 15c 14e
18a 199 15b 15c
18b 18c 15d 14f
18b 19a 15c 15d
18c 19b 15d 15e
18e 190 160 152
18e 19d 15f 160
190 191 161 153
190 19f 160 161
191 192 162 154
191 1a0 161 162
192 193 163 155
192 1a1 162 163
193 194 164 156
193 1a2 163 164
194 195 165 157
194 1a3 164 165
195 196 166 158
195 1a4 165 166
196 197 167 159
196 1a5 166 167
197 198 168 15a
197 1a6 167 168
198 199 169 15b
198 1a7 168 169
199 19a 16a 15c
199 1a8 169 16a
19a 19b 16b 15d
19a 1a9 16a 16b
19b 1aa 16b 16c
19d 19f 16e 160
19d 1ac 16d 16e
19f 1a0 16f 161
19f 1ae 16e 16f
1a0 1a1 170 162
1a0 1af 16f 170
1a1 1a2 171 163
1a1 1b0 170 171
1a2 1a3 172 164
1a2 1b1 171 172
1a3 1a4 173 165
1a3 1b2 172 173
1a4 1a5 174 166
1a4 1b3 173 174
1a5 1a6 175 167
1a5 1b4 174 175
1a6 1a7 176 168
1a6 1b5 175 176
1a7 1a8 177 169
1a7 1b6 176 177
1a8 1a9 178 16a
1a8 1b7 177 178
1a9 1aa 179 16b
1a9 1b8 178 179
1aa 1b9 179 17a
1ac 1ae 17c 16e
1ae 1af 17d 16f
1af 1b0 17e 170
1b0 1b1 17f 171
1b1 1b2 180 172
1b2 1b3 181 173
1b3 1b4 182 174
1b4 1b5 183 175
1b5 1b6 184 176
1b6 1b7 185 177
1b7 1b8 186 178
1b8 1b9 187 179
2b6 2b7 25b 25c
2b4 2b5 25a 25b
2b2 2b3 259 25a
2b0 2b1 258 259
2ae 2af 257 258
2ac 2ad 256 257
2aa 2ab 255 256
2a8 2a9 254 255
2a6 2a7 253 254
2a4 2a5 252 253
2a2 2a3 251 252
2a0 2a1 250 251
29e 29f 24f 250
29c 29d 24e 24f
29a 29b 24d 24e
298 299 24c 24d
296 297 24b 24c
294 295 24a 24b
292 293 249 24a
290 291 248 249
28e 28f 247 248
28b 28c 246 247
2b9 2b7 25c 273
2d1 2d0 273 28a
2e9 2e8 28a 2a1
301 300 2a1 2b8
319 318 2b8 2cf
331 330 2cf 2e6
349 348 2e6 2fd
361 360 2fd 314
379 378 314 32b
391 390 32b 342
3a9 3a8 342 359
3c1 3c0 359 370
3d9 3d8 370 387
3f1 3f0 387 39e
409 408 39e 3b5
421 420 3b5 3cc
439 438 3cc 3e3
451 450 3e3 3fa
469 468 3fa 411
273 272 411 22f
25b 25a 22f 218
243 242 218 201
22b 22a 201 1ea
213 212 1ea 1d3
1fb 1fa 1d3 1bc
1cd 1cc 1bc 1a5
1cb 1cc 1a5 1a6
1ce 1cf 1a6 1a7
1d0 1d1 1a7 1a8
1d2 1d3 1a8 1a9
1d4 1d5 1a9 1aa
1d6 1d7 1aa 1ab
1d8 1d9 1ab 1ac
1da 1db 1ac 1ad
1dc 1dd 1ad 1ae
1de 1df 1ae 1af
1e0 1e1 1af 1b0
1e2 1e3 1b0 1b1
1e4 1e5 1b1 1b2
1e6 1e7 1b2 1b3
1e8 1e9 1b3 1b4
1ea 1eb 1b4 1b5
1ec 1ed 1b5 1b6
1ee 1ef 1b6 1b7
1f0 1f1 1b7 1b8
1f2 1f3 1b8 1b9
1f4 1f5 1b9 1ba
1f6 1f7 1ba 1bb
1f9 1f7 1bb 1d2
211 210 1d2 1e9
229 228 1e9 200
241 240 200 217
259 258 217 22e
271 270 22e 245
289 288 245 3fb
453 452 3fb 3e4
43b 43a 3e4 3cd
423 422 3cd 3b6
40b 40a 3b6 39f
3f3 3f2 39f 388
3db 3da 388 371
3c3 3c2 371 35a
3ab 3aa 35a 343
393 392 343 32c
37b 37a 32c 315
363 362 315 2fe
34b 34a 2fe 2e7
333 332 2e7 2d0
31b 31a 2d0 2b9
303 302 2b9 2a2
2eb 2ea 2a2 28b
2d3 2d2 28b 274
2bb 2ba 274 25d
28d 28c 25d 246
288 270 245 244
288 287 244 3fc
288 452 3fc 3fb
287 26f 244 243
287 286 243 3fd
287 454 3fd 3fc
286 26e 243 242
286 285 242 3fe
286 455 3fe 3fd
285 26d 242 241
285 284 241 3ff
285 456 3ff 3fe
284 26c 241 240
284 283 240 400
284 457 400 3ff
283 26b 240 23f
283 282 23f 401
283 458 401 400
282 26a 23f 23e
282 281 23e 402
282 459 402 401
281 269 23e 23d
281 280 23d 403
281 45a 403 402
280 268 23d 23c
280 27f 23c 404
280 45b 404 403
27f 267 23c 23b
27f 27e 23b 405
27f 45c 405 404
27e 266 23b 23a
27e 27d 23a 406
27e 45d 406 405
27d 265 23a 239
27d 27c 239 407
27d 45e 407 406
27c 264 239 238
27c 27b 238 408
27c 45f 408 407
27b 263 238 237
27b 27a 237 409
27b 460 409 408
27a 262 237 236
27a 279 236 40a
27a 461 40a 409
279 261 236 235
279 278 235 40b
279 462 40b 40a
278 260 235 234
278 277 234 40c
278 463 40c 40b
277 25f 234 233
277 276 233 40d
277 464 40d 40c
276 25e 233 232
276 275 232 40e
276 465 40e 40d
275 25d 232 231
275 274 231 40f
275 466 40f 40e
274 25c 231 230
274 272 230 410
274 467 410 40f
272 25a 230 22f
272 468 411 410
1cc 1cf 1bd 1a6
1cc 1fa 1bc 1bd
1cf 1d1 1be 1a7
1cf 1fc 1bd 1be
1d1 1d3 1bf 1a8
1d1 1fd 1be 1bf
1d3 1d5 1c0 1a9
1d3 1fe 1bf 1c0
1d5 1d7 1c1 1aa
1d5 1ff 1c0 1c1
1d7 1d9 1c2 1ab
1d7 200 1c1 1c2
1d9 1db 1c3 1ac
1d9 201 1c2 1c3
1db 1dd 1c4 1ad
1db 202 1c3 1c4
1dd 1df 1c5 1ae
1dd 203 1c4 1c5
1df 1e1 1c6 1af
1df 204 1c5 1c6
1e1 1e3 1c7 1b0
1e1 205 1c6 1c7
1e3 1e5 1c8 1b1
1e3 206 1c7 1c8
1e5 1e7 1c9 1b2
1e5 207 1c8 1c9
1e7 1e9 1ca 1b3
1e7 208 1c9 1ca
1e9 1eb 1cb 1b4
1e9 209 1ca 1cb
1eb 1ed 1cc 1b5
1eb 20a 1cb 1cc
1ed 1ef 1cd 1b6
1ed 20b 1cc 1cd
1ef 1f1 1ce 1b7
1ef 20c 1cd 1ce
1f1 1f3 1cf 1b8
1f1 20d 1ce 1cf
1f3 1f5 1d0 1b9
1f3 20e 1cf 1d0
1f5 1f7 1d1 1ba
1f5 20f 1d0 1d1
1f7 210 1d1 1d2
1fa 1fc 1d4 1bd
1fa 212 1d3 1d4
1fc 1fd 1d5 1be
1fc 214 1d4 1d5
1fd 1fe 1d6 1bf
1fd 215 1d5 1d6
1fe 1ff 1d7 1c0
1fe 216 1d6 1d7
1ff 200 1d8 1c1
1ff 217 1d7 1d8
200 201 1d9 1c2
200 218 1d8 1d9
201 202 1da 1c3
201 219 1d9 1da
202 203 1db 1c4
202 21a 1da 1db
203 204 1dc 1c5
203 21b 1db 1dc
204 205 1dd 1c6
204 21c 1dc 1dd
205 206 1de 1c7
205 21d 1dd 1de
206 207 1df 1c8
206 21e 1de 1df
207 208 1e0 1c9
207 21f 1df 1e0
208 209 1e1 1ca
208 220 1e0 1e1
209 20a 1e2 1cb
209 221 1e1 1e2
20a 20b 1e3 1cc
20a 222 1e2 1e3
20b 20c 1e4 1cd
20b 223 1e3 1e4
20c 20d 1e5 1ce
20c 224 1e4 1e5
20d 20e 1e6 1cf
20d 225 1e5 1e6
20e 20f 1e7 1d0
20e 226 1e6 1e7
20f 210 1e8 1d1
20f 227 1e7 1e8
210 228 1e8 1e9
212 214 1eb 1d4
212 22a 1ea 1eb
214 215 1ec 1d5
214 22c 1eb 1ec
215 216 1ed 1d6
215 22d 1ec 1ed
216 217 1ee 1d7
216 22e 1ed 1ee
217 218 1ef 1d8
217 22f 1ee 1ef
218 219 1f0 1d9
218 230 1ef 1f0
219 21a 1f1 1da
219 231 1f0 1f1
21a 21b 1f2 1db
21a 232 1f1 1f2
21b 21c 1f3 1dc
21b 233 1f2 1f3
21c 21d 1f4 1dd
21c 234 1f3 1f4
21d 21e 1f5 1de
21d 235 1f4 1f5
21e 21f 1f6 1df
21e 236 1f5 1f6
21f 220 1f7 1e0
21f 237 1f6 1f7
220 221 1f8 1e1
220 238 1f7 1f8
221 222 1f9 1e2
221 239 1f8 1f9
222 223 1fa 1e3
222 23a 1f9 1fa
223 224 1fb 1e4
223 23b 1fa 1fb
224 225 1fc 1e5
224 23c 1fb 1fc
225 226 1fd 1e6
225 23d 1fc 1fd
226 227 1fe 1e7
226 23e 1fd 1fe
227 228 1ff 1e8
227 23f 1fe 1ff
228 240 1ff 200
22a 22c 202 1eb
22a 242 201 202
22c 22d 203 1ec
22c 244 202 203
22d 22e 204 1ed
22d 245 203 204
22e 22f 205 1ee
22e 246 204 205
22f 230 206 1ef
22f 247 205 206
230 231 207 1f0
230 248 206 207
231 232 208 1f1
231 249 207 208
232 233 209 1f2
232 24a 208 209
233 234 20a 1f3
233 24b 209 20a
234 235 20b 1f4
234 24c 20a 20b
235 236 20c 1f5
235 24d 20b 20c
236 237 20d 1f6
236 24e 20c 20d
237 238 20e 1f7
237 24f 20d 20e
238 239 20f 1f8
238 250 20e 20f
239 23a 210 1f9
239 251 20f 210
23a 23b 211 1fa
23a 252 210 211
23b 23c 212 1fb
23b 253 211 212
23c 23d 213 1fc
23c 254 212 213
23d 23e 214 1fd
23d 255 213 214
23e 23f 215 1fe
23e 256 214 215
23f 240 216 1ff
23f 257 215 216
240 258 216 217
242 244 219 202
242 25a 218 219
244 245 21a 203
244 25c 219 21a
245 246 21b 204
245 25d 21a 21b
246 247 21c 205
246 25e 21b 21c
247 248 21d 206
247 25f 21c 21d
248 249 21e 207
248 260 21d 21e
249 24a 21f 208
249 261 21e 21f
24a 24b 220 209
24a 262 21f 220
24b 24c 221 20a
24b 263 220 221
24c 24d 222 20b
24c 264 221 222
24d 24e 223 20c
24d 265 222 223
24e 24f 224 20d
24e 266 223 224
24f 250 225 20e
24f 267 224 225
250 251 226 20f
250 268 225 226
251 252 227 210
251 269 226 227
252 253 228 211
252 26a 227 228
253 254 229 212
253 26b 228 229
254 255 22a 213
254 26c 229 22a
255 256 22b 214
255 26d 22a 22b
256 257 22c 215
256 26e 22b 22c
257 258 22d 216
257 26f 22c 22d
258 270 22d 22e
25a 25c 230 219
25c 25d 231 21a
25d 25e 232 21b
25e 25f 233 21c
25f 260 234 21d
260 261 235 21e
261 262 236 21f
262 263 237 220
263 264 238 221
264 265 239 222
265 266 23a 223
266 267 23b 224
267 268 23c 225
268 269 23d 226
269 26a 23e 227
26a 26b 23f 228
26b 26c 240 229
26c 26d 241 22a
26d 26e 242 22b
26e 26f 243 22c
26f 270 244 22d
28c 28f 25e 247
28c 2ba 25d 25e
28f 291 25f 248
28f 2bc 25e 25f
291 293 260 249
291 2bd 25f 260
293 295 261 24a
293 2be 260 261
295 297 262 24b
295 2bf 261 262
297 299 263 24c
297 2c0 262 263
299 29b 264 24d
299 2c1 263 264
29b 29d 265 24e
29b 2c2 264 265
29d 29f 266 24f
29d 2c3 265 266
29f 2a1 267 250
29f 2c4 266 267
2a1 2a3 268 251
2a1 2c5 267 268
2a3 2a5 269 252
2a3 2c6 268 269
2a5 2a7 26a 253
2a5 2c7 269 26a
2a7 2a9 26b 254
2a7 2c8 26a 26b
2a9 2ab 26c 255
2a9 2c9 26b 26c
2ab 2ad 26d 256
2ab 2ca 26c 26d
2ad 2af 26e 257
2ad 2cb 26d 26e
2af 2b1 26f 258
2af 2cc 26e 26f
2b1 2b3 270 259
2b1 2cd 26f 270
2b3 2b5 271 25a
2b3 2ce 270 271
2b5 2b7 272 25b
2b5 2cf 271 272
2b7 2d0 272 273
2ba 2bc 275 25e
2ba 2d2 274 275
2bc 2bd 276 25f
2bc 2d4 275 276
2bd 2be 277 260
2bd 2d5 276 277
2be 2bf 278 261
2be 2d6 277 278
2bf 2c0 279 262
2bf 2d7 278 279
2c0 2c1 27a 263
2c0 2d8 279 27a
2c1 2c2 27b 264
2c1 2d9 27a 27b
2c2 2c3 27c 265
2c2 2da 27b 27c
2c3 2c4 27d 266
2c3 2db 27c 27d
2c4 2c5 27e 267
2c4 2dc 27d 27e
2c5 2c6 27f 268
2c5 2dd 27e 27f
2c6 2c7 280 269
2c6 2de 27f 280
2c7 2c8 281 26a
2c7 2df 280 281
2c8 2c9 282 26b
2c8 2e0 281 282
2c9 2ca 283 26c
2c9 2e1 282 283
2ca 2cb 284 26d
2ca 2e2 283 284
2cb 2cc 285 26e
2cb 2e3 284 285
2cc 2cd 286 26f
2cc 2e4 285 286
2cd 2ce 287 270
2cd 2e5 286 287
2ce 2cf 288 271
2ce 2e6 287 288
2cf 2d0 289 272
2cf 2e7 288 289
2d0 2e8 289 28a
2d2 2d4 28c 275
2d2 2ea 28b 28c
2d4 2d5 28d 276
2d4 2ec 28c 28d
2d5 2d6 28e 277
2d5 2ed 28d 28e
2d6 2d7 28f 278
2d6 2ee 28e 28f
2d7 2d8 290 279
2d7 2ef 28f 290
2d8 2d9 291 27a
2d8 2f0 290 291
2d9 2da 292 27b
2d9 2f1 291 292
2da 2db 293 27c
2da 2f2 292 293
2db 2dc 294 27d
2db 2f3 293 294
2dc 2dd 295 27e
2dc 2f4 294 295
2dd 2de 296 27f
2dd 2f5 295 296
2de 2df 297 280
2de 2f6 296 297
2df 2e0 298 281
2df 2f7 297 298
2e0 2e1 299 282
2e0 2f8 298 299
2e1 2e2 29a 283
2e1 2f9 299 29a
2e2 2e3 29b 284
2e2 2fa 29a 29b
2e3 2e4 29c 285
2e3 2fb 29b 29c
2e4 2e5 29d 286
2e4 2fc 29c 29d
2e5 2e6 29e 287
2e5 2fd 29d 29e
2e6 2e7 29f 288
2e6 2fe 29e 29f
2e7 2e8 2a0 289
2e7 2ff 29f 2a0
2e8 300 2a0 2a1
2ea 2ec 2a3 28c
2ea 302 2a2 2a3
2ec 2ed 2a4 28d
2ec 304 2a3 2a4
2ed 2ee 2a5 28e
2ed 305 2a4 2a5
2ee 2ef 2a6 28f
2ee 306 2a5 2a6
2ef 2f0 2a7 290
2ef 307 2a6 2a7
2f0 2f1 2a8 291
2f0 308 2a7 2a8
2f1 2f2 2a9 292
2f1 309 2a8 2a9
2f2 2f3 2aa 293
2f2 30a 2a9 2aa
2f3 2f4 2ab 294
2f3 30b 2aa 2ab
2f4 2f5 2ac 295
2f4 30c 2ab 2ac
2f5 2f6 2ad 296
2f5 30d 2ac 2ad
2f6 2f7 2ae 297
2f6 30e 2ad 2ae
2f7 2f8 2af 298
2f7 30f 2ae 2af
2f8 2f9 2b0 299
2f8 310 2af 2b0
2f9 2fa 2b1 29a
2f9 311 2b0 2b1
2fa 2fb 2b2 29b
2fa 312 2b1 2b2
2fb 2fc 2b3 29c
2fb 313 2b2 2b3
2fc 2fd 2b4 29d
2fc 314 2b3 2b4
2fd 2fe 2b5 29e
2fd 315 2b4 2b5
2fe 2ff 2b6 29f
2fe 316 2b5 2b6
2ff 300 2b7 2a0
2ff 317 2b6 2b7
300 318 2b7 2b8
302 304 2ba 2a3
302 31a 2b9 2ba
304 305 2bb 2a4
304 31c 2ba 2bb
305 306 2bc 2a5
305 31d 2bb 2bc
306 307 2bd 2a6
306 31e 2bc 2bd
307 308 2be 2a7
307 31f 2bd 2be
308 309 2bf 2a8
308 320 2be 2bf
309 30a 2c0 2a9
309 321 2bf 2c0
30a 30b 2c1 2aa
30a 322 2c0 2c1
30b 30c 2c2 2ab
30b 323 2c1 2c2
30c 30d 2c3 2ac
30c 324 2c2 2c3
30d 30e 2c4 2ad
30d 325 2c3 2c4
30e 30f 2c5 2ae
30e 326 2c4 2c5
30f 310 2c6 2af
30f 327 2c5 2c6
310 311 2c7 2b0
310 328 2c6 2c7
311 312 2c8 2b1
311 329 2c7 2c8
312 313 2c9 2b2
312 32a 2c8 2c9
313 314 2ca 2b3
313 32b 2c9 2ca
314 315 2cb 2b4
314 32c 2ca 2cb
315 316 2cc 2b5
315 32d 2cb 2cc
316 317 2cd 2b6
316 32e 2cc 2cd
317 318 2ce 2b7
317 32f 2cd 2ce
318 330 2ce 2cf
31a 31c 2d1 2ba
31a 332 2d0 2d1
31c 31d 2d2 2bb
31c 334 2d1 2d2
31d 31e 2d3 2bc
31d 335 2d2 2d3
31e 31f 2d4 2bd
31e 336 2d3 2d4
31f 320 2d5 2be
31f 337 2d4 2d5
320 321 2d6 2bf
320 338 2d5 2d6
321 322 2d7 2c0
321 339 2d6 2d7
322 323 2d8 2c1
322 33a 2d7 2d8
323 324 2d9 2c2
323 33b 2d8 2d9
324 325 2da 2c3
324 33c 2d9 2da
325 326 2db 2c4
325 33d 2da 2db
326 327 2dc 2c5
326 33e 2db 2dc
327 328 2dd 2c6
327 33f 2dc 2dd
328 329 2de 2c7
328 340 2dd 2de
329 32a 2df 2c8
329 341 2de 2df
32a 32b 2e0 2c9
32a 342 2df 2e0
32b 32c 2e1 2ca
32b 343 2e0 2e1
32c 32d 2e2 2cb
32c 344 2e1 2e2
32d 32e 2e3 2cc
32d 345 2e2 2e3
32e 32f 2e4 2cd
32e 346 2e3 2e4
32f 330 2e5 2ce
32f 347 2e4 2e5
330 348 2e5 2e6
332 334 2e8 2d1
332 34a 2e7 2e8
334 335 2e9 2d2
334 34c 2e8 2e9
335 336 2ea 2d3
335 34d 2e9 2ea
336 337 2eb 2d4
336 34e 2ea 2eb
337 338 2ec 2d5
337 34f 2eb 2ec
338 339 2ed 2d6
338 350 2ec 2ed
339 33a 2ee 2d7
339 351 2ed 2ee
33a 33b 2ef 2d8
33a 352 2ee 2ef
33b 33c 2f0 2d9
33b 353 2ef 2f0
33c 33d 2f1 2da
33c 354 2f0 2f1
33d 33e 2f2 2db
33d 355 2f1 2f2
33e 33f 2f3 2dc
33e 356 2f2 2f3
33f 340 2f4 2dd
33f 357 2f3 2f4
340 341 2f5 2de
340 358 2f4 2f5
341 342 2f6 2df
341 359 2f5 2f6
342 343 2f7 2e0
342 35a 2f6 2f7
343 344 2f8 2e1
343 35b 2f7 2f8
344 345 2f9 2e2
344 35c 2f8 2f9
345 346 2fa 2e3
345 35d 2f9 2fa
346 347 2fb 2e4
346 35e 2fa 2fb
347 348 2fc 2e5
347 35f 2fb 2fc
348 360 2fc 2fd
34a 34c 2ff 2e8
34a 362 2fe 2ff
34c 34d 300 2e9
34c 364 2ff 300
34d 34e 301 2ea
34d 365 300 301
34e 34f 302 2eb
34e 366 301 302
34f 350 303 2ec
34f 367 302 303
350 351 304 2ed
350 368 303 304
351 352 305 2ee
351 369 304 305
352 353 306 2ef
352 36a 305 306
353 354 307 2f0
353 36b 306 307
354 355 308 2f1
354 36c 307 308
355 356 309 2f2
355 36d 308 309
356 357 30a 2f3
356 36e 309 30a
357 358 30b 2f4
357 36f 30a 30b
358 359 30c 2f5
358 370 30b 30c
359 35a 30d 2f6
359 371 30c 30d
35a 35b 30e 2f7
35a 372 30d 30e
35b 35c 30f 2f8
35b 373 30e 30f
35c 35d 310 2f9
35c 374 30f 310
35d 35e 311 2fa
35d 375 310 311
35e 35f 312 2fb
35e 376 311 312
35f 360 313 2fc
35f 377 312 313
360 378 313 314
362 364 316 2ff
362 37a 315 316
364 365 317 300
364 37c 316 317
365 366 318 301
365 37d 317 318
366 367 319 302
366 37e 318 319
367 368 31a 303
367 37f 319 31a
368 369 31b 304
368 380 31a 31b
369 36a 31c 305
369 381 31b 31c
36a 36b 31d 306
36a 382 31c 31d
36b 36c 31e 307
36b 383 31d 31e
36c 36d 31f 308
36c 384 31e 31f
36d 36e 320 309
36d 385 31f 320
36e 36f 321 30a
36e 386 320 321
36f 370 322 30b
36f 387 321 322
370 371 323 30c
370 388 322 323
371 372 324 30d
371 389 323 324
372 373 325 30e
372 38a 324 325
373 374 326 30f
373 38b 325 326
374 375 327 310
374 38c 326 327
375 376 328 311
375 38d 327 328
376 377 329 312
376 38e 328 329
377 378 32a 313
377 38f 329 32a
378 390 32a 32b
37a 37c 32d 316
37a 392 32c 32d
37c 37d 32e 317
37c 394 32d 32e
37d 37e 32f 318
37d 395 32e 32f
37e 37f 330 319
37e 396 32f 330
37f 380 331 31a
37f 397 330 331
380 381 332 31b
380 398 331 332
381 382 333 31c
381 399 332 333
382 383 334 31d
382 39a 333 334
383 384 335 31e
383 39b 334 335
384 385 336 31f
384 39c 335 336
385 386 337 320
385 39d 336 337
386 387 338 321
386 39e 337 338
387 388 339 322
387 39f 338 339
388 389 33a 323
388 3a0 339 33a
389 38a 33b 324
389 3a1 33a 33b
38a 38b 33c 325
38a 3a2 33b 33c
38b 38c 33d 326
38b 3a3 33c 33d
38c 38d 33e 327
38c 3a4 33d 33e
38d 38e 33f 328
38d 3a5 33e 33f
38e 38f 340 329
38e 3a6 33f 340
38f 390 341 32a
38f 3a7 340 341
390 3a8 341 342
392 394 344 32d
392 3aa 343 344
394 395 345 32e
394 3ac 344 345
395 396 346 32f
395 3ad 345 346
396 397 347 330
396 3ae 346 347
397 398 348 331
397 3af 347 348
398 399 349 332
398 3b0 348 349
399 39a 34a 333
399 3b1 349 34a
39a 39b 34b 334
39a 3b2 34a 34b
39b 39c 34c 335
39b 3b3 34b 34c
39c 39d 34d 336
39c 3b4 34c 34d
39d 39e 34e 337
39d 3b5 34d 34e
39e 39f 34f 338
39e 3b6 34e 34f
39f 3a0 350 339
39f 3b7 34f 350
3a0 3a1 351 33a
3a0 3b8 350 351
3a1 3a2 352 33b
3a1 3b9 351 352
3a2 3a3 353 33c
3a2 3ba 352 353
3a3 3a4 354 33d
3a3 3bb 353 354
3a4 3a5 355 33e
3a4 3bc 354 355
3a5 3a6 356 33f
3a5 3bd 355 356
3a6 3a7 357 340
3a6 3be 356 357
3a7 3a8 358 341
3a7 3bf 357 358
3a8 3c0 358 359
3aa 3ac 35b 344
3aa 3c2 35a 35b
3ac 3ad 35c 345
3ac 3c4 35b 35c
3ad 3ae 35d 346
3ad 3c5 35c 35d
3ae 3af 35e 347
3ae 3c6 35d 35e
3af 3b0 35f 348
3af 3c7 35e 35f
3b0 3b1 360 349
3b0 3c8 35f 360
3b1 3b2 361 34a
3b1 3c9 360 361
3b2 3b3 362 34b
3b2 3ca 361 362
3b3 3b4 363 34c
3b3 3cb 362 363
3b4 3b5 364 34d
3b4 3cc 363 364
3b5 3b6 365 34e
3b5 3cd 364 365
3b6 3b7 366 34f
3b6 3ce 365 366
3b7 3b8 367 350
3b7 3cf 366 367
3b8 3b9 368 351
3b8 3d0 367 368
3b9 3ba 369 352
3b9 3d1 368 369
3ba 3bb 36a 353
3ba 3d2 369 36a
3bb 3bc 36b 354
3bb 3d3 36a 36b
3bc 3bd 36c 355
3bc 3d4 36b 36c
3bd 3be 36d 356
3bd 3d5 36c 36d
3be 3bf 36e 357
3be 3d6 36d 36e
3bf 3c0 36f 358
3bf 3d7 36e 36f
3c0 3d8 36f 370
3c2 3c4 372 35b
3c2 3da 371 372
3c4 3c5 373 35c
3c4 3dc 372 373
3c5 3c6 374 35d
3c5 3dd 373 374
3c6 3c7 375 35e
3c6 3de 374 375
3c7 3c8 376 35f
3c7 3df 375 376
3c8 3c9 377 360
3c8 3e0 376 377
3c9 3ca 378 361
3c9 3e1 377 378
3ca 3cb 379 362
3ca 3e2 378 379
3cb 3cc 37a 363
3cb 3e3 379 37a
3cc 3cd 37b 364
3cc 3e4 37a 37b
3cd 3ce 37c 365
3cd 3e5 37b 37c
3ce 3cf 37d 366
3ce 3e6 37c 37d
3cf 3d0 37e 367
3cf 3e7 37d 37e
3d0 3d1 37f 368
3d0 3e8 37e 37f
3d1 3d2 380 369
3d1 3e9 37f 380
3d2 3d3 381 36a
3d2 3ea 380 381
3d3 3d4 382 36b
3d3 3eb 381 382
3d4 3d5 383 36c
3d4 3ec 382 383
3d5 3d6 384 36d
3d5 3ed 383 384
3d6 3d7 385 36e
3d6 3ee 384 385
3d7 3d8 386 36f
3d7 3ef 385 386
3d8 3f0 386 387
3da 3dc 389 372
3da 3f2 388 389
3dc 3dd 38a 373
3dc 3f4 389 38a
3dd 3de 38b 374
3dd 3f5 38a 38b
3de 3df 38c 375
3de 3f6 38b 38c
3df 3e0 38d 376
3df 3f7 38c 38d
3e0 3e1 38e 377
3e0 3f8 38d 38e
3e1 3e2 38f 378
3e1 3f9 38e 38f
3e2 3e3 390 379
3e2 3fa 38f 390
3e3 3e4 391 37a
3e3 3fb 390 391
3e4 3e5 392 37b
3e4 3fc 391 392
3e5 3e6 393 37c
3e5 3fd 392 393
3e6 3e7 394 37d
3e6 3fe 393 394
3e7 3e8 395 37e
3e7 3ff 394 395
3e8 3e9 396 37f
3e8 400 395 396
3e9 3ea 397 380
3e9 401 396 397
3ea 3eb 398 381
3ea 402 397 398
3eb 3ec 399 382
3eb 403 398 399
3ec 3ed 39a 383
3ec 404 399 39a
3ed 3ee 39b 384
3ed 405 39a 39b
3ee 3ef 39c 385
3ee 406 39b 39c
3ef 3f0 39d 386
3ef 407 39c 39d
3f0 408 39d 39e
3f2 3f4 3a0 389
3f2 40a 39f 3a0
3f4 3f5 3a1 38a
3f4 40c 3a0 3a1
3f5 3f6 3a2 38b
3f5 40d 3a1 3a2
3f6 3f7 3a3 38c
3f6 40e 3a2 3a3
3f7 3f8 3a4 38d
3f7 40f 3a3 3a4
3f8 3f9 3a5 38e
3f8 410 3a4 3a5
3f9 3fa 3a6 38f
3f9 411 3a5 3a6
3fa 3fb 3a7 390
3fa 412 3a6 3a7
3fb 3fc 3a8 391
3fb 413 3a7 3a8
3fc 3fd 3a9 392
3fc 414 3a8 3a9
3fd 3fe 3aa 393
3fd 415 3a9 3aa
3fe 3ff 3ab 394
3fe 416 3aa 3ab
3ff 400 3ac 395
3ff 417 3ab 3ac
400 401 3ad 396
400 418 3ac 3ad
401 402 3ae 397
401 419 3ad 3ae
402 403 3af 398
402 41a 3ae 3af
403 404 3b0 399
403 41b 3af 3b0
404 405 3b1 39a
404 41c 3b0 3b1
405 406 3b2 39b
405 41d 3b1 3b2
406 407 3b3 39c
406 41e 3b2 3b3
407 408 3b4 39d
407 41f 3b3 3b4
408 420 3b4 3b5
40a 40c 3b7 3a0
40a 422 3b6 3b7
40c 40d 3b8 3a1
40c 424 3b7 3b8
40d 40e 3b9 3a2
40d 425 3b8 3b9
40e 40f 3ba 3a3
40e 426 3b9 3ba
40f 410 3bb 3a4
40f 427 3ba 3bb
410 411 3bc 3a5
410 428 3bb 3bc
411 412 3bd 3a6
411 429 3bc 3bd
412 413 3be 3a7
412 42a 3bd 3be
413 414 3bf 3a8
413 42b 3be 3bf
414 415 3c0 3a9
414 42c 3bf 3c0
415 416 3c1 3aa
415 42d 3c0 3c1
416 417 3c2 3ab
416 42e 3c1 3c2
417 418 3c3 3ac
417 42f 3c2 3c3
418 419 3c4 3ad
418 430 3c3 3c4
419 41a 3c5 3ae
419 431 3c4 3c5
41a 41b 3c6 3af
41a 432 3c5 3c6
41b 41c 3c7 3b0
41b 433 3c6 3c7
41c 41d 3c8 3b1
41c 434 3c7 3c8
41d 41e 3c9 3b2
41d 435 3c8 3c9
41e 41f 3ca 3b3
41e 436 3c9 3ca
41f 420 3cb 3b4
41f 437 3ca 3cb
420 438 3cb 3cc
422 424 3ce 3b7
422 43a 3cd 3ce
424 425 3cf 3b8
424 43c 3ce 3cf
425 426 3d0 3b9
425 43d 3cf 3d0
426 427 3d1 3ba
426 43e 3d0 3d1
427 428 3d2 3bb
427 43f 3d1 3d2
428 429 3d3 3bc
428 440 3d2 3d3
429 42a 3d4 3bd
429 441 3d3 3d4
42a 42b 3d5 3be
42a 442 3d4 3d5
42b 42c 3d6 3bf
42b 443 3d5 3d6
42c 42d 3d7 3c0
42c 444 3d6 3d7
42d 42e 3d8 3c1
42d 445 3d7 3d8
42e 42f 3d9 3c2
42e 446 3d8 3d9
42f 430 3da 3c3
42f 447 3d9 3da
430 431 3db 3c4
430 448 3da 3db
431 432 3dc 3c5
431 449 3db 3dc
432 433 3dd 3c6
432 44a 3dc 3dd
433 434 3de 3c7
433 44b 3dd 3de
434 435 3df 3c8
434 44c 3de 3df
435 436 3e0 3c9
435 44d 3df 3e0
436 437 3e1 3ca
436 44e 3e0 3e1
437 438 3e2 3cb
437 44f 3e1 3e2
438 450 3e2 3e3
43a 43c 3e5 3ce
43a 452 3e4 3e5
43c 43d 3e6 3cf
43c 454 3e5 3e6
43d 43e 3e7 3d0
43d 455 3e6 3e7
43e 43f 3e8 3d1
43e 456 3e7 3e8
43f 440 3e9 3d2
43f 457 3e8 3e9
440 441 3ea 3d3
440 458 3e9 3ea
441 442 3eb 3d4
441 459 3ea 3eb
442 443 3ec 3d5
442 45a 3eb 3ec
443 444 3ed 3d6
443 45b 3ec 3ed
444 445 3ee 3d7
444 45c 3ed 3ee
445 446 3ef 3d8
445 45d 3ee 3ef
446 447 3f0 3d9
446 45e 3ef 3f0
447 448 3f1 3da
447 45f 3f0 3f1
448 449 3f2 3db
448 460 3f1 3f2
449 44a 3f3 3dc
449 461 3f2 3f3
44a 44b 3f4 3dd
44a 462 3f3 3f4
44b 44c 3f5 3de
44b 463 3f4 3f5
44c 44d 3f6 3df
44c 464 3f5 3f6
44d 44e 3f7 3e0
44d 465 3f6 3f7
44e 44f 3f8 3e1
44e 466 3f7 3f8
44f 450 3f9 3e2
44f 467 3f8 3f9
450 468 3f9 3fa
452 454 3fc 3e5
454 455 3fd 3e6
455 456 3fe 3e7
456 457 3ff 3e8
457 458 400 3e9
458 459 401 3ea
459 45a 402 3eb
45a 45b 403 3ec
45b 45c 404 3ed
45c 45d 405 3ee
45d 45e 406 3ef
45e 45f 407 3f0
45f 460 408 3f1
460 461 409 3f2
461 462 40a 3f3
462 463 40b 3f4
463 464 40c 3f5
464 465 40d 3f6
465 466 40e 3f7
466 467 40f 3f8
467 468 410 3f9
))
(13 (1 7cd 7fd 7 2)
(
105 106 d2 0
106 115 e0 0
115 124 ee 0
124 133 fc 0
133 142 10a 0
142 151 118 0
151 160 126 0
160 16f 134 0
16f 17e 142 0
17e 18d 150 0
18d 19c 15e 0
19c 1ab 16c 0
1ab 1ba 17a 0
1ba 1c9 188 0
1c9 cd 189 0
cd b0 a9 0
b0 93 8d 0
93 76 71 0
76 59 55 0
59 3c 39 0
3c 4 1d 0
1 4 0 1
1f8 1f9 1bb 0
1f9 211 1d2 0
211 229 1e9 0
229 241 200 0
241 259 217 0
259 271 22e 0
271 289 245 0
289 453 3fb 0
453 43b 3e4 0
43b 423 3cd 0
423 40b 3b6 0
40b 3f3 39f 0
3f3 3db 388 0
3db 3c3 371 0
3c3 3ab 35a 0
3ab 393 343 0
393 37b 32c 0
37b 363 315 0
363 34b 2fe 0
34b 333 2e7 0
333 31b 2d0 0
31b 303 2b9 0
303 2eb 2a2 0
2eb 2d3 28b 0
2d3 2bb 274 0
2bb 28d 25d 0
28a 28d 0 246
))
(13 (2 7fe 814 3 2)
(
2b8 2b6 0 25c
2b6 2b4 0 25b
2b4 2b2 0 25a
2b2 2b0 0 259
2b0 2ae 0 258
2ae 2ac 0 257
2ac 2aa 0 256
2aa 2a8 0 255
2a8 2a6 0 254
2a6 2a4 0 253
2a4 2a2 0 252
2a2 2a0 0 251
2a0 29e 0 250
29e 29c 0 24f
29c 29a 0 24e
29a 298 0 24d
298 296 0 24c
296 294 0 24b
294 292 0 24a
292 290 0 249
290 28e 0 248
28e 28b 0 247
28a 28b 246 0
))
(13 (3 815 82a 3 2)
(
39 3a 1c 0
3a 57 38 0
57 74 54 0
74 91 70 0
91 ae 8c 0
ae cb a8 0
cb e8 c4 0
e8 e9 1a4 0
e9 ea c5 0
ea ed c6 0
ed ef c7 0
ef f1 c8 0
f1 f3 c9 0
f3 f5 ca 0
f5 f7 cb 0
f7 f9 cc 0
f9 fb cd 0
fb fd ce 0
fd ff cf 0
ff 101 d0 0
101 103 d1 0
105 103 0 d2
))
(13 (4 82b 841 3 2)
(
1ca 1cb 1a5 0
1cb 1ce 1a6 0
1ce 1d0 1a7 0
1d0 1d2 1a8 0
1d2 1d4 1a9 0
1d4 1d6 1aa 0
1d6 1d8 1ab 0
1d8 1da 1ac 0
1da 1dc 1ad 0
1dc 1de 1ae 0
1de 1e0 1af 0
1e0 1e2 1b0 0
1e2 1e4 1b1 0
1e4 1e6 1b2 0
1e6 1e8 1b3 0
1e8 1ea 1b4 0
1ea 1ec 1b5 0
1ec 1ee 1b6 0
1ee 1f0 1b7 0
1f0 1f2 1b8 0
1f2 1f4 1b9 0
1f4 1f6 1ba 0
1f8 1f6 0 1bb
))
(13 (5 842 85d 3 2)
(
1 2 1 0
2 5 2 0
5 7 3 0
7 9 4 0
9 b 5 0
b d 6 0
d f 7 0
f 11 8 0
11 13 9 0
13 15 a 0
15 17 b 0
17 19 c 0
19 1b d 0
1b 1d e 0
1d 1f f 0
1f 21 10 0
21 23 11 0
23 25 12 0
25 27 13 0
27 29 14 0
29 2b 15 0
2b 2d 16 0
2d 2f 17 0
2f 31 18 0
31 33 19 0
33 35 1a 0
35 37 1b 0
39 37 0 1c
))
(13 (6 85e 878 3 2)
(
2b8 2b9 25c 0
2b9 2d1 273 0
2d1 2e9 28a 0
2e9 301 2a1 0
301 319 2b8 0
319 331 2cf 0
331 349 2e6 0
349 361 2fd 0
361 379 314 0
379 391 32b 0
391 3a9 342 0
3a9 3c1 359 0
3c1 3d9 370 0
3d9 3f1 387 0
3f1 409 39e 0
409 421 3b5 0
421 439 3cc 0
439 451 3e3 0
451 469 3fa 0
469 273 411 0
273 25b 22f 0
25b 243 218 0
243 22b 201 0
22b 213 1ea 0
213 1fb 1d3 0
1fb 1cd 1bc 0
1ca 1cd 0 1a5
))

(0 "Cells:")
(12 (7 1 1a4 1 3))
(12 (8 1a5 411 1 3))

(0 "Zones:")
(45 (7 fluid cylinderTool)())
(45 (8 fluid flatBase)())
(45 (10 interior interior)())
(45 (1 symmetry symmetry)())
(45 (2 wall bottom)())
(45 (3 wall top)())
(45 (4 wall contact1)())
(45 (5 wall contact2)())
(45 (6 wall side)())

