<svg width="2145" height="2203" xmlns="http://www.w3.org/2000/svg" xmlns:xlink="http://www.w3.org/1999/xlink" xml:space="preserve" overflow="hidden"><g transform="translate(12 -255)"><path d="M2125 1613 1337 1495.5 2125 1378Z" fill="#FF9900" fill-rule="evenodd"/><path d="M2041 1613 1337 1489.5 2041 1366Z" fill="#FFFFFF" fill-rule="evenodd"/><rect x="756" y="674" width="231" height="1718" fill="#C4C4C8"/><rect x="1042" y="405" width="58.0001" height="1987" fill="#FF9900"/><path d="M756.5 468.5 756.5 2434.75" stroke="#232323" stroke-width="20.625" stroke-linejoin="round" stroke-miterlimit="10" stroke-dasharray="82.5 61.875 20.625 61.875" fill="none" fill-rule="evenodd"/><path d="M1983 1592 1337 1495.5 1983 1399Z" fill="#C4C4C8" fill-rule="evenodd"/><path d="M0 0 788.425 117.425" stroke="#6195CA" stroke-width="13.75" stroke-linejoin="round" stroke-miterlimit="10" fill="none" fill-rule="evenodd" transform="matrix(1 0 0 -1 1337 1495.43)"/><path d="M1337 1496 2125.42 1613.43" stroke="#6195CA" stroke-width="13.75" stroke-linejoin="round" stroke-miterlimit="10" fill="none" fill-rule="evenodd"/><text fill="#6195CA" font-family="Palatino Linotype,Palatino Linotype_MSFontService,sans-serif" font-style="italic" font-weight="700" font-size="73" transform="matrix(1 0 0 1 1415.89 1420)">wedge</text><rect x="467.5" y="367.5" width="501" height="111" stroke="#232323" stroke-width="3.4375" stroke-linejoin="round" stroke-miterlimit="10" fill="#FFFFFF"/><text fill="#232323" font-family="Palatino Linotype,Palatino Linotype_MSFontService,sans-serif" font-weight="700" font-size="64" transform="matrix(1 0 0 1 536.99 443)">Lateral view</text><path d="M0 0 232.215 1.78317" stroke="#32A14C" stroke-width="13.75" stroke-linejoin="round" stroke-miterlimit="10" fill="none" fill-rule="evenodd" transform="matrix(1 0 0 -1 754 678.783)"/><text fill="#32A14C" font-family="Palatino Linotype,Palatino Linotype_MSFontService,sans-serif" font-style="italic" font-weight="700" font-size="73" transform="matrix(1 0 0 1 809.57 652)">empty</text><path d="M1039 408 1100.11 408" stroke="#32A14C" stroke-width="13.75" stroke-linejoin="round" stroke-miterlimit="10" fill="none" fill-rule="evenodd"/><path d="M1042 2397 1103.11 2397" stroke="#32A14C" stroke-width="13.75" stroke-linejoin="round" stroke-miterlimit="10" fill="none" fill-rule="evenodd"/><path d="M0 0 232.215 1.78317" stroke="#32A14C" stroke-width="13.75" stroke-linejoin="round" stroke-miterlimit="10" fill="none" fill-rule="evenodd" transform="matrix(1 0 0 -1 755 2396.78)"/><text fill="#32A14C" font-family="Palatino Linotype,Palatino Linotype_MSFontService,sans-serif" font-style="italic" font-weight="700" font-size="73" transform="matrix(1 0 0 1 1115.12 396)">empty</text><text fill="#32A14C" font-family="Palatino Linotype,Palatino Linotype_MSFontService,sans-serif" font-style="italic" font-weight="700" font-size="73" transform="matrix(1 0 0 1 1119.76 2380)">empty</text><path d="M1381.81 1394.25 923.872 1225.35 928.63 1212.44 1386.57 1381.35ZM925.564 1240.63 894 1207 939.839 1201.92Z" fill="#6195CA"/><path d="M1379.79 1388.7 1076.95 1135.33 1085.78 1124.78 1388.62 1378.15ZM1073.4 1150.29 1055 1108 1099.87 1118.65Z" fill="#6195CA"/><rect x="1749.5" y="1185.5" width="373" height="112" stroke="#232323" stroke-width="3.4375" stroke-linejoin="round" stroke-miterlimit="10" fill="#FFFFFF"/><text fill="#232323" font-family="Palatino Linotype,Palatino Linotype_MSFontService,sans-serif" font-weight="700" font-size="64" transform="matrix(1 0 0 1 1800.76 1262)">Top view</text><rect x="47.0001" y="1439" width="502" height="111" fill="#FFFFFF"/><text font-family="Palatino Linotype,Palatino Linotype_MSFontService,sans-serif" font-weight="700" font-size="64" transform="matrix(1 0 0 1 81.3284 1516)">Symmetry axis</text><path d="M2.56654-6.37797 138.282 48.2347 133.149 60.9906-2.56654 6.37797ZM137.037 32.9122 167.605 67.4454 121.637 71.18Z" fill="#232323" transform="matrix(1 0 0 -1 549 1494.45)"/><rect x="71.9998" y="805" width="58.0001" height="96.9999" fill="#C4C4C8"/><rect x="71.9998" y="940" width="58.0001" height="95.9999" fill="#FF9900"/><text fill="#003399" font-family="Palatino Linotype,Palatino Linotype_MSFontService,sans-serif" font-weight="400" font-size="83" transform="matrix(1 0 0 1 217.999 880)">fuel</text><text fill="#003399" font-family="Palatino Linotype,Palatino Linotype_MSFontService,sans-serif" font-weight="400" font-size="83" transform="matrix(1 0 0 1 217.999 1023)">cladding</text><text fill="#232323" font-family="Palatino Linotype,Palatino Linotype_MSFontService,sans-serif" font-weight="700" font-size="64" transform="matrix(1 0 0 1 89.1998 2402)">solution directions</text><text fill="#FF0000" font-family="Palatino Linotype,Palatino Linotype_MSFontService,sans-serif" font-weight="700" font-size="64" transform="matrix(1 0 0 1 286.571 2285)">r (</text><text fill="#FF0000" font-family="Palatino Linotype,Palatino Linotype_MSFontService,sans-serif" font-weight="700" font-size="64" transform="matrix(1 0 0 1 349.019 2285)">actually x</text><text fill="#FF0000" font-family="Palatino Linotype,Palatino Linotype_MSFontService,sans-serif" font-weight="700" font-size="64" transform="matrix(1 0 0 1 628.03 2285)">-</text><text fill="#FF0000" font-family="Palatino Linotype,Palatino Linotype_MSFontService,sans-serif" font-weight="700" font-size="64" transform="matrix(1 0 0 1 649.228 2285)">)</text><path d="M60.5 2288.78 230.877 2288.78 230.877 2292.22 60.5 2292.22ZM226.294 2276.75 253.794 2290.5 226.294 2304.25Z" fill="#232323"/><text fill="#32A14C" font-family="Palatino Linotype,Palatino Linotype_MSFontService,sans-serif" font-style="italic" font-weight="700" font-size="73" transform="matrix(1 0 0 1 1665.81 1799)">empty</text><path d="M6.60893-1.8941 59.8742 183.96 46.6563 187.748-6.60893 1.8941ZM71.1979 173.563 62.7357 218.899 31.5443 184.928Z" fill="#32A14C" transform="matrix(1 0 0 -1 1777 1723.9)"/><path d="M4.14784-5.4828 278.174 201.823 269.878 212.789-4.14784 5.4828ZM280.987 186.71 301.44 228.045 256.1 219.606Z" fill="#32A14C" transform="matrix(1 0 0 -1 1780 1730.04)"/></g></svg>